<?xml version="1.0" encoding="UTF-8"?>
<svg version="1.1" xmlns="http://www.w3.org/2000/svg" width="429" height="429">
<path d="M0 0 C141.57 0 283.14 0 429 0 C429 141.57 429 283.14 429 429 C287.43 429 145.86 429 0 429 C0 287.43 0 145.86 0 0 Z " fill="#97904C" transform="translate(0,0)"/>
<path d="M0 0 C43.89 0 87.78 0 133 0 C131.68 3.96 130.36 7.92 129 12 C127.49962632 22.76738761 129.51505545 33.3803259 135.75 42.375 C140.05957694 47.61195425 145.46626158 51.95820674 152 54 C151.67 55.2375 151.34 56.475 151 57.75 C148.57385138 68.98412294 149.57052106 79.59884532 155.54296875 89.578125 C159.24454142 94.69425747 163.32707914 98.23027981 169 101 C169.71027344 101.37125 170.42054688 101.7425 171.15234375 102.125 C174.52151643 103.16024648 177.39067365 103.10801501 180.89160156 103.07324219 C191.79762619 103.02722521 191.79762619 103.02722521 195.33203125 105.88671875 C196.75 108.25 196.75 108.25 197.87890625 110.703125 C199.71186945 114.45846423 202.47650742 115.87260825 206 118 C206.99 118.33 207.98 118.66 209 119 C209 124.28 209 129.56 209 135 C205.36756608 132.09405286 202.26019029 129.26019029 199 126 C196.22797282 123.76544459 196.22797282 123.76544459 193.3125 123.9375 C189.208267 125.25395209 186.92981811 127.38188782 183.83203125 130.30859375 C182 132 182 132 179 134 C178.67128906 133.3709375 178.34257812 132.741875 178.00390625 132.09375 C172.92568805 122.95570966 166.03097231 115.60870345 156 112 C145.55386581 109.4732565 136.10556244 110.88174584 126.875 116.25 C119.47016525 121.19637073 114.91154416 127.05073283 111 135 C109.99839844 134.95359375 108.99679687 134.9071875 107.96484375 134.859375 C100.63732708 134.62386411 95.1011009 134.45964584 89 139 C88.34 139 87.68 139 87 139 C86.74605469 138.25234375 86.49210938 137.5046875 86.23046875 136.734375 C85.88628906 135.74953125 85.54210937 134.7646875 85.1875 133.75 C84.85105469 132.77546875 84.51460937 131.8009375 84.16796875 130.796875 C83.05867958 128.14051698 81.8306717 126.20310061 80 124 C77.16461093 123.87055003 77.16461093 123.87055003 74 125 C70.11502644 129.31663728 68.27705 134.4274182 67 140 C66.34 140 65.68 140 65 140 C64.566875 139.175 64.13375 138.35 63.6875 137.5 C62.25233089 134.79822586 62.25233089 134.79822586 59.625 134.3125 C55.76686577 135.32296373 54.07268143 137.7833061 52 141 C50.5488705 143.62899435 49.26895457 146.27409759 48 149 C46.02 148.67 44.04 148.34 42 148 C42.19335938 148.7734375 42.38671875 149.546875 42.5859375 150.34375 C42.84632813 151.3853125 43.10671875 152.426875 43.375 153.5 C43.65730469 154.59828125 43.93960938 155.6965625 44.23046875 156.828125 C45 160 45 160 45.36328125 162.296875 C46.42625439 168.70032766 50.10092551 172.13517457 55 176 C60.7596905 179.83708959 66.8347897 182.94076781 73.0625 185.9375 C97.75694448 198.10764343 115.1544677 220.77210279 125 246 C126.72378606 251.24811711 127.92924109 256.5824698 129 262 C129.17362061 262.7731958 129.34724121 263.5463916 129.52612305 264.34301758 C133.14886806 284.65539982 129.98164708 306.50061963 119 324 C113.76130826 330.8952979 107.78612702 337.02303426 100 341 C99.34 341 98.68 341 98 341 C97.95875 341.5775 97.9175 342.155 97.875 342.75 C96.52146062 346.23052985 94.19608311 347.19479634 91 349 C87.73046875 349.58959961 87.73046875 349.58959961 84.1875 349.71484375 C83.21635254 349.75652931 83.21635254 349.75652931 82.22558594 349.79905701 C80.15062179 349.88366873 78.0758655 349.94218268 76 350 C74.63665602 350.05192646 73.27337275 350.10547254 71.91015625 350.16064453 C67.60754225 350.32701414 63.30432889 350.45016239 59 350.5625 C58.23373291 350.58268188 57.46746582 350.60286377 56.67797852 350.62365723 C51.11899258 350.76692414 45.559733 350.8897312 40 351 C39.23268555 351.01544861 38.46537109 351.03089722 37.67480469 351.04681396 C33.29434418 351.1318522 28.91435749 351.1962023 24.53320312 351.23117065 C22.53765176 351.24965131 20.54224473 351.28204083 18.546875 351.31469727 C16.74476563 351.32134399 16.74476563 351.32134399 14.90625 351.328125 C13.85759766 351.3374707 12.80894531 351.34681641 11.72851562 351.35644531 C8.61496952 350.94970074 7.22379718 350.18784358 5 348 C5 347.34 5 346.68 5 346 C4.09906616 346.00785522 4.09906616 346.00785522 3.17993164 346.01586914 C0.47413162 346.03658014 -2.23165177 346.04964125 -4.9375 346.0625 C-5.88302734 346.07087891 -6.82855469 346.07925781 -7.80273438 346.08789062 C-9.15141602 346.09272461 -9.15141602 346.09272461 -10.52734375 346.09765625 C-11.77632446 346.10551147 -11.77632446 346.10551147 -13.05053711 346.11352539 C-15 346 -15 346 -16 345 C-16.5631397 341.05802207 -16.04403378 339.08806756 -14.25 335.5 C-9.46660582 329.50071512 -2.57375748 326.46816223 4.90625 325.48828125 C12.27628368 325.27791612 15.8854562 325.86369096 22 330 C24.96684779 330.47739958 24.96684779 330.47739958 27.875 330.25 C28.84179688 330.21390625 29.80859375 330.1778125 30.8046875 330.140625 C31.52914062 330.09421875 32.25359375 330.0478125 33 330 C33 329.34 33 328.68 33 328 C32.10474609 327.62875 32.10474609 327.62875 31.19140625 327.25 C26.01040791 324.29470683 23.07487698 317.89900377 21.125 312.4375 C17.76231749 299.41216954 19.804096 288.01273428 26.45703125 276.47265625 C28.79303278 272.7683372 31.22759773 269.66706206 34.4375 266.6875 C35.283125 265.800625 36.12875 264.91375 37 264 C36.73388089 261.85547297 36.73388089 261.85547297 36 260 C32.88289026 260.61649504 30.7477196 261.66268774 28.125 263.4375 C22.36132175 267.12753017 16.79940278 268.50191768 10 269 C9.17113281 269.06574219 8.34226562 269.13148438 7.48828125 269.19921875 C-6.08959462 269.74839365 -19.39886216 265.72121331 -32.1875 261.5625 C-33.04786865 261.28656006 -33.9082373 261.01062012 -34.79467773 260.72631836 C-40.25716475 258.8734607 -45.48518938 256.66860196 -50 253 C-51.125 250.3125 -51.125 250.3125 -51 248 C-50.34 247.34 -49.68 246.68 -49 246 C-48.855625 244.865625 -48.71125 243.73125 -48.5625 242.5625 C-48 239 -48 239 -46.625 237.125 C-43.73296045 235.12281877 -41.17190619 234.87821343 -37.76953125 234.90234375 C-36.56586914 234.90717773 -36.56586914 234.90717773 -35.33789062 234.91210938 C-34.50451172 234.92048828 -33.67113281 234.92886719 -32.8125 234.9375 C-31.5450293 234.94426758 -31.5450293 234.94426758 -30.25195312 234.95117188 C-28.16793845 234.96294597 -26.08396023 234.9808811 -24 235 C-27.29215969 228.84559069 -30.45253855 224.77706359 -37 222 C-40.14225417 221.16416828 -43.26287747 220.45807945 -46.4609375 219.87109375 C-49 219 -49 219 -50.3515625 216.91015625 C-50.56554687 216.27980469 -50.77953125 215.64945313 -51 215 C-52.65 215 -54.3 215 -56 215 C-56.33 217.31 -56.66 219.62 -57 222 C-57.99 222 -58.98 222 -60 222 C-60.17015625 221.34773437 -60.3403125 220.69546875 -60.515625 220.0234375 C-62.38658837 213.27602705 -64.14927539 207.4296401 -70.4375 203.625 C-76.00488021 201.06844211 -82.0149174 201.67155034 -88 202 C-88.00257812 201.443125 -88.00515625 200.88625 -88.0078125 200.3125 C-88.34139696 193.7297666 -90.43686134 189.72343627 -95 185 C-97.41009656 183.00640556 -98.99885646 182.00038118 -102 181 C-102.80626363 156.32533096 -103.13945285 131.68744589 -103 107 C-102.39800781 107.15936035 -101.79601562 107.3187207 -101.17578125 107.48291016 C-90.59126395 109.99839575 -81.22163158 107.27674493 -72.09375 101.87109375 C-65.22359037 96.84115545 -62.59614213 88.9143613 -61.26171875 80.87109375 C-61.17535156 80.25363281 -61.08898437 79.63617188 -61 79 C-60.23816406 78.97421875 -59.47632813 78.9484375 -58.69140625 78.921875 C-51.6043752 78.53257492 -46.2370296 77.36335687 -40 74 C-38.6696875 73.4121875 -38.6696875 73.4121875 -37.3125 72.8125 C-31.65003608 68.3743526 -27.57311316 60.99683166 -26 54 C-25.49135967 49.67157053 -25.19244357 45.35320631 -25 41 C-24.20335937 40.69707031 -23.40671875 40.39414062 -22.5859375 40.08203125 C-12.04919438 35.91604401 -7.14165094 32.12684829 -2.19921875 21.83984375 C1.08406216 14.06477788 0 9.71366372 0 0 Z " fill="#A86C2F" transform="translate(165,0)"/>
<path d="M0 0 C43.89 0 87.78 0 133 0 C131.68 3.96 130.36 7.92 129 12 C127.49962632 22.76738761 129.51505545 33.3803259 135.75 42.375 C140.05957694 47.61195425 145.46626158 51.95820674 152 54 C151.67 55.2375 151.34 56.475 151 57.75 C148.57385138 68.98412294 149.57052106 79.59884532 155.54296875 89.578125 C159.24454142 94.69425747 163.32707914 98.23027981 169 101 C169.71027344 101.37125 170.42054688 101.7425 171.15234375 102.125 C174.52151643 103.16024648 177.39067365 103.10801501 180.89160156 103.07324219 C191.79762619 103.02722521 191.79762619 103.02722521 195.33203125 105.88671875 C196.75 108.25 196.75 108.25 197.87890625 110.703125 C199.71186945 114.45846423 202.47650742 115.87260825 206 118 C206.99 118.33 207.98 118.66 209 119 C209 124.28 209 129.56 209 135 C205.36756608 132.09405286 202.26019029 129.26019029 199 126 C196.22797282 123.76544459 196.22797282 123.76544459 193.3125 123.9375 C189.208267 125.25395209 186.92981811 127.38188782 183.83203125 130.30859375 C182 132 182 132 179 134 C178.67128906 133.3709375 178.34257812 132.741875 178.00390625 132.09375 C172.92568805 122.95570966 166.03097231 115.60870345 156 112 C145.55386581 109.4732565 136.10556244 110.88174584 126.875 116.25 C119.47016525 121.19637073 114.91154416 127.05073283 111 135 C109.99839844 134.95359375 108.99679687 134.9071875 107.96484375 134.859375 C100.63732708 134.62386411 95.1011009 134.45964584 89 139 C88.34 139 87.68 139 87 139 C86.74605469 138.25234375 86.49210938 137.5046875 86.23046875 136.734375 C85.88628906 135.74953125 85.54210937 134.7646875 85.1875 133.75 C84.85105469 132.77546875 84.51460937 131.8009375 84.16796875 130.796875 C83.05867958 128.14051698 81.8306717 126.20310061 80 124 C77.16461093 123.87055003 77.16461093 123.87055003 74 125 C70.11502644 129.31663728 68.27705 134.4274182 67 140 C66.34 140 65.68 140 65 140 C64.566875 139.175 64.13375 138.35 63.6875 137.5 C62.25233089 134.79822586 62.25233089 134.79822586 59.625 134.3125 C55.76686577 135.32296373 54.07268143 137.7833061 52 141 C50.5488705 143.62899435 49.26895457 146.27409759 48 149 C44.94690696 148.75575256 43.55138829 148.59080585 41 147 C38.03106835 142.74874256 34.75395751 137.82509497 35.21875 132.48828125 C35.78699624 130.67841699 36.40144762 128.88286298 37.04296875 127.09765625 C38.08161123 123.7358461 38.30006113 120.94940681 38.3125 117.4375 C38.33763672 115.79587891 38.33763672 115.79587891 38.36328125 114.12109375 C37.95881393 110.64615405 37.07100004 108.79134788 35 106 C30.40730044 103.24438026 24.89197199 103.34113334 19.75390625 104.51171875 C19.17511719 104.67285156 18.59632813 104.83398438 18 105 C18.04640625 104.13117188 18.0928125 103.26234375 18.140625 102.3671875 C18.60463833 95.01546337 18.60463833 95.01546337 16.375 88.1875 C14.17458151 85.81045436 14.17458151 85.81045436 11.25 85.3125 C6.80105859 86.25362222 3.63734384 88.33681954 0 91 C-0.82886719 91.60199219 -1.65773438 92.20398438 -2.51171875 92.82421875 C-5.21985549 95.19224412 -6.86966843 97.50488119 -8.75 100.5625 C-9.34296875 101.51253906 -9.9359375 102.46257812 -10.546875 103.44140625 C-12.10520127 105.99305046 -12.10520127 105.99305046 -13 109 C-15.4140625 109.66796875 -15.4140625 109.66796875 -18.625 110.1875 C-34.54378014 113.55627694 -48.37145714 123.93426424 -59 136 C-59.33 136.66 -59.66 137.32 -60 138 C-61.12148437 137.98259766 -61.12148437 137.98259766 -62.265625 137.96484375 C-63.25046875 137.95582031 -64.2353125 137.94679687 -65.25 137.9375 C-66.22453125 137.92589844 -67.1990625 137.91429687 -68.203125 137.90234375 C-70.65758678 137.98804423 -72.66168914 138.29293934 -75 139 C-75.19335938 138.26394531 -75.38671875 137.52789062 -75.5859375 136.76953125 C-75.84632812 135.79371094 -76.10671875 134.81789062 -76.375 133.8125 C-76.63023438 132.84957031 -76.88546875 131.88664063 -77.1484375 130.89453125 C-77.94766296 128.17789793 -78.9031362 125.60862825 -80 123 C-83.6088281 123.90220702 -84.885986 124.84574576 -87.125 127.875 C-89.75116468 132.90314457 -90.80655747 138.49389012 -92 144 C-95.63 143.67 -99.26 143.34 -103 143 C-103 131.12 -103 119.24 -103 107 C-101.68 107.33 -100.36 107.66 -99 108 C-88.42479846 109.02814459 -79.23931763 107.10267005 -70.5625 100.75 C-64.59095686 94.34151467 -62.20028767 87.58116113 -61 79 C-60.23816406 78.97421875 -59.47632813 78.9484375 -58.69140625 78.921875 C-51.6043752 78.53257492 -46.2370296 77.36335687 -40 74 C-38.6696875 73.4121875 -38.6696875 73.4121875 -37.3125 72.8125 C-31.65003608 68.3743526 -27.57311316 60.99683166 -26 54 C-25.49135967 49.67157053 -25.19244357 45.35320631 -25 41 C-24.20335937 40.69707031 -23.40671875 40.39414062 -22.5859375 40.08203125 C-12.04919438 35.91604401 -7.14165094 32.12684829 -2.19921875 21.83984375 C1.08406216 14.06477788 0 9.71366372 0 0 Z " fill="#F4D8B2" transform="translate(165,0)"/>
<path d="M0 0 C54.45 0 108.9 0 165 0 C167.56860043 5.13720087 166.54488708 12.5900423 165.31640625 18.0234375 C162.04362857 27.71955062 157.37133001 33.69025943 148.5625 38.87109375 C145.70816661 40.12856685 143.08448901 40.60995561 140 41 C140.04640625 41.82242188 140.0928125 42.64484375 140.140625 43.4921875 C140.48326712 54.08961871 138.36937908 61.91327616 131.703125 70.24609375 C126.71213048 75.38590232 120.14870273 78.84535684 112.9609375 79.11328125 C109.97065609 79.12378575 106.98888719 79.08705497 104 79 C104.0825 79.969375 104.165 80.93875 104.25 81.9375 C104.2220487 88.85544695 100.54595996 95.32833079 95.98046875 100.36328125 C89.2821646 105.89896061 81.10519007 109.14438106 72.5 109.125 C71.3553125 109.12757812 70.210625 109.13015625 69.03125 109.1328125 C66 109 66 109 63 108 C62.92342957 133.3442223 63.12241465 158.67864477 63.46356201 184.02044678 C63.52561165 188.66855681 63.5849316 193.31670177 63.64453125 197.96484375 C63.76045957 206.97659712 63.87923058 215.98831029 64 225 C60.7 225.33 57.4 225.66 54 226 C54.04640625 225.28714844 54.0928125 224.57429687 54.140625 223.83984375 C54.38813906 217.27188139 54.12004677 213.23357292 50 208 C45.8452392 205.26972862 40.82085813 205.62916476 36 206 C34.6590665 206.30130753 33.32227738 206.62520482 32 207 C31.88138357 199.77757708 32.03574761 192.61514723 32.4375 185.40625 C33.16910937 171.52820725 33.59764991 157.63900146 34.0625 143.75 C34.1539705 141.04686389 34.2459251 138.34374431 34.33789062 135.640625 C34.56026357 129.09380563 34.78085737 122.54692826 35 116 C33.92854736 116.48533203 32.85709473 116.97066406 31.75317383 117.47070312 C27.62097872 119.23725663 24.15152693 119.53686357 19.6875 119.5 C18.94564453 119.49863037 18.20378906 119.49726074 17.43945312 119.49584961 C10.98240937 119.3164091 4.72315525 117.72315525 0 113 C-0.09565123 111.5325104 -0.12188309 110.06043116 -0.12025452 108.58982849 C-0.12163201 107.63964309 -0.12300951 106.68945768 -0.12442875 105.71047878 C-0.12083064 104.65545194 -0.11723253 103.60042509 -0.11352539 102.51342773 C-0.11364593 101.39323022 -0.11376646 100.2730327 -0.11389065 99.11888981 C-0.11314111 95.47377129 -0.10551101 91.82870318 -0.09765625 88.18359375 C-0.09618696 85.94079615 -0.09516617 83.69799821 -0.09460449 81.4552002 C-0.08935013 73.11596159 -0.07538907 64.7767303 -0.0625 56.4375 C-0.041875 37.813125 -0.02125 19.18875 0 0 Z " fill="#4F582B" transform="translate(0,0)"/>
<path d="M0 0 C0.96511725 0.00092179 1.93023451 0.00184359 2.92459774 0.00279331 C4.02822659 0.00141865 5.13185543 0.00004398 6.26892757 -0.00137234 C7.49027905 0.00222294 8.71163052 0.00581821 9.96999264 0.00952244 C11.88678829 0.0093034 11.88678829 0.0093034 13.84230709 0.00907993 C17.35661253 0.00879197 20.87088412 0.01468843 24.38518167 0.02165389 C28.05407018 0.02788771 31.72295939 0.02849125 35.39185238 0.0296793 C42.34398097 0.03279253 49.29609392 0.04100581 56.24821562 0.05102879 C65.63939924 0.06427549 75.03058712 0.0696899 84.42177773 0.07553101 C99.22488909 0.08494571 114.02796742 0.10486467 128.83107662 0.12304783 C128.83107662 36.09304783 128.83107662 72.06304783 128.83107662 109.12304783 C124.4068409 110.89274212 122.47190414 111.3026713 117.95607662 111.37304783 C112.5479657 111.72430994 110.10196827 112.86193157 106.36623287 116.68945408 C104.148773 118.76021177 101.73317487 119.41521899 98.83107662 120.12304783 C98.98805523 121.25391819 99.14503384 122.38478855 99.30676937 123.54992771 C99.87697305 128.13019794 100.08125384 132.68211128 100.21999264 137.2929697 C100.26410275 138.61145405 100.26410275 138.61145405 100.30910397 139.95657444 C100.40454043 142.83488027 100.49480063 145.713323 100.58498287 148.59179783 C100.65049377 150.59819667 100.71633012 152.60458491 100.78247738 154.61096287 C100.95503999 159.87152245 101.12320104 165.13221373 101.29042721 170.39294529 C101.46211179 175.76921232 101.63798451 181.14534219 101.8134985 186.52148533 C102.15677641 197.05520989 102.4954017 207.58907843 102.83107662 218.12304783 C101.45629147 217.39601658 101.45629147 217.39601658 100.05373287 216.65429783 C96.23520042 214.83991635 94.01059866 214.51511735 89.83107662 215.12304783 C86.96503082 217.36604019 85.23179589 218.98253915 84.01857662 222.43554783 C83.95670162 222.99242283 83.89482662 223.54929783 83.83107662 224.12304783 C82.9713525 223.68363865 82.9713525 223.68363865 82.09426022 223.23535252 C79.88284658 222.10817635 79.88284658 222.10817635 77.71242428 221.29980564 C75.25773039 220.15752802 73.66158357 219.13289139 71.83107662 217.12304783 C70.68950326 212.71159983 70.99865131 208.3980761 71.20607662 203.87304783 C71.2405016 202.49356611 71.27164817 201.1139994 71.29982662 199.73437595 C71.39481197 195.77212989 71.54897348 191.81401704 71.71669674 187.854249 C71.8391981 184.92912038 71.95172321 182.00372054 72.06252193 179.07812595 C72.38974827 170.49530527 72.72158848 161.91296672 73.11769772 153.33300877 C73.62553035 142.25087397 73.97695581 131.21797074 73.83107662 120.12304783 C72.65545162 119.62804783 71.47982662 119.13304783 70.26857662 118.62304783 C65.35610582 116.17555348 61.88774067 112.65931447 58.83107662 108.12304783 C58.46673882 106.79785092 58.12860853 105.46482413 57.83107662 104.12304783 C56.57552975 104.18105564 55.31998287 104.23906345 54.02638912 104.29882908 C36.60464985 104.86609706 36.60464985 104.86609706 28.83107662 99.12304783 C28.18010006 98.66543064 27.5291235 98.20781345 26.85842037 97.73632908 C19.50963533 92.04141074 15.51584573 84.17378422 13.83107662 75.12304783 C13.10745055 67.53984309 13.85451032 61.13923982 16.83107662 54.12304783 C16.17107662 54.08179783 15.51107662 54.04054783 14.83107662 53.99804783 C7.91327299 51.9803551 1.6683962 46.14661477 -2.16892338 40.12304783 C-3.74845142 36.52495359 -5.00437718 32.87348378 -6.16892338 29.12304783 C-6.49892338 28.13304783 -6.82892338 27.14304783 -7.16892338 26.12304783 C-7.89774082 17.04269938 -7.15751291 9.37254024 -3.16892338 1.12304783 C-2.16892338 0.12304783 -2.16892338 0.12304783 0 0 Z " fill="#4E582B" transform="translate(300.1689233779907,-0.1230478286743164)"/>
<path d="M0 0 C3.63 1.65 7.26 3.3 11 5 C14.16375537 5.38867441 16.64918306 5.58585053 19.75 5.4375 C20.45253906 5.43169922 21.15507812 5.42589844 21.87890625 5.41992188 C26.5547378 5.31148422 30.55729998 4.44794804 35 3 C35.30116565 33.38426783 34.06806517 63.69245973 32 94 C32.61568848 93.67620361 33.23137695 93.35240723 33.86572266 93.01879883 C38.49473841 90.80913482 43.56341428 91.53920835 48.3125 93.0625 C51.72411859 95.52203898 53.72443307 98.02668231 55 102 C55.30410788 105.36480656 55.24387694 108.63314331 55 112 C57.97 112 60.94 112 64 112 C63.83628906 110.53949219 63.67257813 109.07898438 63.50390625 107.57421875 C62.78420914 99.65755058 62.89200546 91.7534434 62.9375 83.8125 C62.94252803 82.27278792 62.94708862 80.73307425 62.95117188 79.19335938 C62.96206736 75.46220572 62.97925918 71.73111346 63 68 C67.59646138 68.7301324 69.23370581 69.83982086 72.25 73.4375 C72.93578125 74.24058594 73.6215625 75.04367188 74.328125 75.87109375 C76.79857337 79.01687497 77.11871191 80.69016612 77.0625 84.625 C77.05347656 85.44226563 77.04445313 86.25953125 77.03515625 87.1015625 C77.02355469 87.72804688 77.01195313 88.35453125 77 89 C77.99 88.67 78.98 88.34 80 88 C86.71721187 87.27220262 92.58874709 87.67795003 98 92 C102.73515379 97.25096575 104.74464024 101.97760669 105 109 C105.99 109 106.98 109 108 109 C108.33 106.69 108.66 104.38 109 102 C111.375 101.8125 111.375 101.8125 114 102 C114.99 103.485 114.99 103.485 116 105 C118.60612405 105.84148818 118.60612405 105.84148818 121.625 106.375 C129.45576556 108.17776617 135.51180296 111.09508148 140 118 C140.6876345 119.65812575 141.3574852 121.32387442 142 123 C140.68644531 122.96519531 139.37289062 122.93039063 138.01953125 122.89453125 C136.28386699 122.86638534 134.54818885 122.83908604 132.8125 122.8125 C131.94818359 122.78736328 131.08386719 122.76222656 130.19335938 122.73632812 C125.37726521 122.68097072 121.78965996 122.63993712 118 126 C117.25823993 129.52513528 117.25823993 129.52513528 117 133 C116.34 133.66 115.68 134.32 115 135 C114.99759596 137.52656213 114.99759596 137.52656213 116 140 C117.79275564 141.51923132 117.79275564 141.51923132 120.1875 142.5 C121.07566406 142.90605469 121.96382813 143.31210937 122.87890625 143.73046875 C128.5165305 146.02362004 134.23557904 148.04807071 140 150 C138.60609461 153.15719572 136.96365028 155.2812653 134.5 157.6875 C133.8915625 158.28949219 133.283125 158.89148438 132.65625 159.51171875 C129.06255693 162.7409571 125.5101523 162.27554925 120.875 162.203125 C113.30288948 161.66813893 108.7171334 158.32441625 103.078125 153.42578125 C101 151 101 151 97 143 C77.86 143 58.72 143 39 143 C39.99 144.98 39.99 144.98 41 147 C41.24636612 149.70017269 41.09065666 152.28030006 41 155 C42.485 154.2575 42.485 154.2575 44 153.5 C49.28198261 151.25915889 53.75297163 151.22218249 59.25 153.125 C63.10459828 155.75313519 65.46697322 158.51403477 66.46484375 163.16796875 C66.71499273 165.10405329 66.86568609 167.0524483 67 169 C67.804375 168.484375 68.60875 167.96875 69.4375 167.4375 C74.01718161 165.5895583 77.26851529 165.75755977 82 167 C86.74577929 169.46415463 90.07120347 172.52066414 93 177 C93 179.64 93 182.28 93 185 C62.31 185 31.62 185 0 185 C0 123.95 0 62.9 0 0 Z " fill="#4F572C" transform="translate(0,113)"/>
<path d="M0 0 C5.10687093 3.76098987 10.50578442 8.85292667 12.66796875 14.96484375 C13.42019756 20.14345297 13.42019756 20.14345297 12.66796875 22.96484375 C10.60216332 25.17058839 8.16696684 26.38034144 5.48046875 27.71484375 C4.13100141 28.43542057 2.78330615 29.15932694 1.4375 29.88671875 C0.79014893 30.23323486 0.14279785 30.57975098 -0.52416992 30.93676758 C-6.93524353 34.58255164 -10.10027025 39.03368358 -12.33203125 45.96484375 C-14.11964325 56.58379263 -11.27223237 66.65584572 -8.55541992 76.86938477 C-4.11414765 93.68915353 -2.16179215 115.40392201 -8.33203125 131.96484375 C-8.69554687 132.96386719 -9.0590625 133.96289062 -9.43359375 134.9921875 C-13.8665483 146.33197124 -19.81885938 155.28026573 -28.33203125 163.96484375 C-28.9971875 164.66609375 -29.66234375 165.36734375 -30.34765625 166.08984375 C-42.19501531 177.66588924 -58.25940029 183.18824799 -74.51953125 183.15234375 C-77.45859077 183.11504674 -80.39372362 183.04705547 -83.33203125 182.96484375 C-83.33203125 182.30484375 -83.33203125 181.64484375 -83.33203125 180.96484375 C-82.32140625 180.13984375 -81.31078125 179.31484375 -80.26953125 178.46484375 C-68.19835055 168.36894717 -62.44045928 151.99066314 -61.02880859 136.67504883 C-60.89634274 133.36960396 -60.86446597 130.08524596 -60.89453125 126.77734375 C-60.90137939 125.60550537 -60.90822754 124.43366699 -60.9152832 123.22631836 C-61.1825248 108.63812999 -64.35020648 96.26628159 -70.33203125 82.96484375 C-78.1043233 63.14976952 -85.00559788 41.4080284 -77.02734375 20.5546875 C-71.00067603 7.30466923 -61.41752358 -2.07037165 -48.046875 -8.05859375 C-31.570148 -14.05513212 -14.34745484 -8.84856527 0 0 Z " fill="#65341B" transform="translate(355.33203125,154.03515625)"/>
<path d="M0 0 C4.70588235 0.70588235 4.70588235 0.70588235 6 2 C7.03788336 11.56335383 5.20193143 18.50206405 1 27 C-0.24025626 29.55726441 -1.46720254 32.12065639 -2.6875 34.6875 C-3.14310303 35.63967407 -3.14310303 35.63967407 -3.60791016 36.61108398 C-5.84150322 41.38500031 -7.18055322 45.81017037 -8 51 C-7.61328125 50.40832031 -7.2265625 49.81664062 -6.828125 49.20703125 C-6.30734375 48.41683594 -5.7865625 47.62664062 -5.25 46.8125 C-4.48429687 45.64654297 -4.48429687 45.64654297 -3.703125 44.45703125 C0.86442003 37.86761423 7.09210144 30.44346562 15.23828125 28.453125 C17.125 28.4375 17.125 28.4375 20 29 C21 30 21 30 21.4375 33 C21.31720897 38.33654765 18.45907841 42.13075419 15 46 C3.06949807 56 3.06949807 56 -3 56 C-3 56.66 -3 57.32 -3 58 C-2.4225 58.2475 -1.845 58.495 -1.25 58.75 C1.3002997 60.16683317 3.01785701 61.87627537 5 64 C5.56847656 63.80664062 6.13695312 63.61328125 6.72265625 63.4140625 C7.88087891 63.02347656 7.88087891 63.02347656 9.0625 62.625 C9.81660156 62.36976563 10.57070313 62.11453125 11.34765625 61.8515625 C12.22292969 61.57054687 13.09820312 61.28953125 14 61 C15.6396875 60.45859375 15.6396875 60.45859375 17.3125 59.90625 C21.32867839 58.91922311 24.80916917 58.8019322 28.9375 58.875 C29.62134766 58.88402344 30.30519531 58.89304687 31.00976562 58.90234375 C32.67333287 58.92561042 34.33671631 58.96146833 36 59 C36.11859375 58.24332031 36.2371875 57.48664063 36.359375 56.70703125 C37.32859713 52.61147677 38.98975591 50.94182945 42 48 C44.8125 47.625 44.8125 47.625 47 48 C48.0070238 53.03511899 47.97387813 56.23947038 46 61 C47.093125 61.04125 48.18625 61.0825 49.3125 61.125 C59.39063322 62.44263579 67.83605657 69.25492478 74 77 C79 85.18501171 79 85.18501171 79 89 C79.88751953 88.58427734 79.88751953 88.58427734 80.79296875 88.16015625 C81.97826172 87.61681641 81.97826172 87.61681641 83.1875 87.0625 C83.96480469 86.70285156 84.74210937 86.34320313 85.54296875 85.97265625 C95.98792897 81.83784688 107.55666245 83.32416405 117.73828125 87.39453125 C128.19464779 92.54131765 136.0965264 100.92163633 139.9375 112 C140.5739001 114.13403625 141 115.77492937 141 118 C81.93 118 22.86 118 -38 118 C-38 92.92 -38 67.84 -38 42 C-29 43.125 -29 43.125 -25.5 44.62890625 C-24.75878906 44.94150391 -24.01757812 45.25410156 -23.25390625 45.57617188 C-22.51011719 45.90166016 -21.76632813 46.22714844 -21 46.5625 C-20.22527344 46.89185547 -19.45054688 47.22121094 -18.65234375 47.56054688 C-16.76436524 48.36468587 -14.8816107 49.18107171 -13 50 C-13.79321743 46.24935462 -15.08338556 44.53691284 -17.75 41.75 C-23.51503614 35.45805195 -28.30052568 29.01547917 -29.3125 20.3125 C-29 18 -29 18 -27.8125 16.1875 C-26 15 -26 15 -23.625 14.4375 C-20.4219062 15.12387724 -19.14030998 16.50189806 -17.19921875 19.0859375 C-14.06818762 24.08334874 -12.01984056 29.19710719 -11 35 C-10.83564453 33.11667969 -10.83564453 33.11667969 -10.66796875 31.1953125 C-8.54952416 8.2611459 -8.54952416 8.2611459 -3.375 2.9375 C-2.59125 2.298125 -1.8075 1.65875 -1 1 C-0.67 0.67 -0.34 0.34 0 0 Z " fill="#363F22" transform="translate(38,311)"/>
<path d="M0 0 C2.25 0.8125 2.25 0.8125 3.25 1.8125 C4.26229338 14.16247925 -0.78546505 23.59164833 -7.53125 33.48828125 C-12.44643069 40.54733105 -12.44643069 40.54733105 -14.5 48.75 C-14.55671875 49.52214844 -14.6134375 50.29429687 -14.671875 51.08984375 C-14.69765625 51.65832031 -14.7234375 52.22679687 -14.75 52.8125 C-13.43 52.8125 -12.11 52.8125 -10.75 52.8125 C-9.21839397 50.86974547 -9.21839397 50.86974547 -8 48.3125 C-5.04898782 43.07370817 -1.72074846 38.31212622 3.25 34.8125 C6.22 34.3175 6.22 34.3175 9.25 33.8125 C9.25 63.8425 9.25 93.8725 9.25 124.8125 C-43.22 124.8125 -95.69 124.8125 -149.75 124.8125 C-148.20652653 110.92123879 -142.80578736 100.62720344 -132.05078125 91.53515625 C-128.81116667 89.10957046 -125.51464596 87.28340616 -121.75 85.8125 C-120.86054688 85.45671875 -119.97109375 85.1009375 -119.0546875 84.734375 C-114.97988839 83.59766981 -111.27357913 83.42951186 -107.0625 83.4375 C-106.27029053 83.43766113 -105.47808105 83.43782227 -104.66186523 83.43798828 C-96.81858805 83.58981942 -90.30608027 85.44177982 -83.75 89.8125 C-83.70875 88.554375 -83.6675 87.29625 -83.625 86 C-82.40969133 75.53849156 -75.65241448 67.32186065 -67.75 60.8125 C-56.21351931 52.8125 -56.21351931 52.8125 -49.75 52.8125 C-49.79125 52.02875 -49.8325 51.245 -49.875 50.4375 C-49.75 47.8125 -49.75 47.8125 -47.75 45.8125 C-43.57958516 45.33129829 -41.48105137 45.29389091 -38.0078125 47.7578125 C-34.30707304 50.09185202 -31.13127446 50.66656749 -26.875 51.0625 C-26.18664062 51.13984375 -25.49828125 51.2171875 -24.7890625 51.296875 C-23.11093135 51.48333402 -21.43062012 51.64999729 -19.75 51.8125 C-21.21183629 47.39432439 -23.66026764 44.18079256 -26.5625 40.625 C-32.37430234 33.24260984 -37.36036835 26.47662036 -37.21875 16.72265625 C-36.62000637 14.28277596 -35.71400665 13.34731755 -33.75 11.8125 C-30.9375 11.1875 -30.9375 11.1875 -27.75 11.8125 C-21.86159128 16.21790208 -19.82948737 23.04804991 -17.75 29.8125 C-16.07699465 25.51048624 -14.56436968 21.25594951 -13.3125 16.8125 C-8.15537715 -0.55604844 -8.15537715 -0.55604844 0 0 Z " fill="#555E2E" transform="translate(419.75,304.1875)"/>
<path d="M0 0 C6.73027291 4.98791799 12.66888711 11.0839897 16.62109375 18.5234375 C17.41773438 17.69199219 17.41773438 17.69199219 18.23046875 16.84375 C18.936875 16.11929688 19.64328125 15.39484375 20.37109375 14.6484375 C21.0671875 13.92914063 21.76328125 13.20984375 22.48046875 12.46875 C25.48609198 9.73736246 27.4041344 8.49698186 31.49609375 8.5859375 C37.59574247 10.41583212 40.7271517 14.65600994 44.62109375 19.5234375 C44.95109375 14.9034375 45.28109375 10.2834375 45.62109375 5.5234375 C45.95109375 5.5234375 46.28109375 5.5234375 46.62109375 5.5234375 C46.69970904 16.12968942 46.49440151 26.68780225 46 37.28515625 C45.93488135 38.73329042 45.87002221 40.18143628 45.80540466 41.6295929 C45.67060116 44.63378368 45.53341205 47.63785201 45.39428711 50.6418457 C45.21784593 54.45358715 45.0464293 58.26553389 44.87667942 62.07757854 C44.74360743 65.05741305 44.60839483 68.03714747 44.47251701 71.01685524 C44.40862288 72.42116772 44.34523568 73.82550337 44.28241158 75.22986412 C43.88771288 84.00985607 43.35202608 92.76483878 42.62109375 101.5234375 C41.71536621 101.53850342 40.80963867 101.55356934 39.87646484 101.5690918 C29.36497717 101.83031167 23.80663085 105.14585932 16.62109375 112.5234375 C13.39294386 102.20488695 11.06738124 90.49019444 15.37109375 80.1484375 C20.32456073 71.68097258 29.87152387 66.39343956 38.62109375 62.5234375 C39.30792767 56.22745992 38.27116579 52.79476777 34.51171875 47.69140625 C28.47565821 40.76989055 21.08142911 36.82296829 12.62109375 33.5234375 C11.45320313 33.04197266 11.45320313 33.04197266 10.26171875 32.55078125 C-0.17766338 28.78489676 -12.35116549 29.2271555 -22.63671875 33.19921875 C-27.32368357 35.4625821 -31.36179042 38.2268196 -35.37890625 41.5234375 C-36.08917969 42.09707031 -36.79945313 42.67070312 -37.53125 43.26171875 C-47.44639328 52.14918883 -51.68084642 64.56962147 -52.58984375 77.53125 C-52.97414312 89.56277645 -50.67936207 101.38248911 -46.05078125 112.484375 C-45.37890625 114.5234375 -45.37890625 114.5234375 -46.37890625 116.5234375 C-46.77980469 115.78480469 -47.18070312 115.04617187 -47.59375 114.28515625 C-51.84917073 106.69101541 -56.60557861 100.03357094 -62.37890625 93.5234375 C-62.9925 92.82605469 -63.60609375 92.12867188 -64.23828125 91.41015625 C-73.04522539 82.01984615 -83.74141305 75.69625161 -95.12890625 69.9609375 C-102.94031662 66.02368157 -109.51983351 62.15758937 -115.37890625 55.5234375 C-115.91902344 54.97042969 -116.45914063 54.41742188 -117.015625 53.84765625 C-119.13903441 50.227517 -119.47826665 46.38720082 -120.06640625 42.2734375 C-120.19595703 41.43296875 -120.32550781 40.5925 -120.45898438 39.7265625 C-120.77595067 37.66041183 -121.07882141 35.59210744 -121.37890625 33.5234375 C-119.39890625 33.5234375 -117.41890625 33.5234375 -115.37890625 33.5234375 C-115.064375 32.84796875 -114.74984375 32.1725 -114.42578125 31.4765625 C-109.82904102 21.89540515 -109.82904102 21.89540515 -106.37890625 19.5234375 C-103.81640625 19.0234375 -103.81640625 19.0234375 -101.37890625 19.5234375 C-99.40280239 21.56768288 -98.37890625 22.64112 -98.37890625 25.5234375 C-97.71890625 25.5234375 -97.05890625 25.5234375 -96.37890625 25.5234375 C-96.33765625 24.5540625 -96.29640625 23.5846875 -96.25390625 22.5859375 C-95.50978215 17.4609138 -92.87487318 13.27657901 -89.37890625 9.5234375 C-86.00390625 8.4609375 -86.00390625 8.4609375 -83.37890625 8.5234375 C-76.37890625 17.91817434 -76.37890625 17.91817434 -76.37890625 24.5234375 C-75.85683594 24.1625 -75.33476562 23.8015625 -74.796875 23.4296875 C-68.02222234 19.1584529 -61.89440057 18.28129256 -54.0546875 20.046875 C-53.22517578 20.28277344 -53.22517578 20.28277344 -52.37890625 20.5234375 C-52.00765625 19.4715625 -52.00765625 19.4715625 -51.62890625 18.3984375 C-47.41456272 8.70544738 -40.19494459 1.92364963 -30.7734375 -2.56640625 C-20.92118277 -6.31122738 -8.98735828 -5.57836031 0 0 Z " fill="#A6995A" transform="translate(328.37890625,114.4765625)"/>
<path d="M0 0 C1.32 0 2.64 0 4 0 C7.54784971 5.37899794 8.70887831 9.58076669 9 16 C9.56203125 15.67257813 10.1240625 15.34515625 10.703125 15.0078125 C13.26859964 13.88214506 14.96842277 13.7931889 17.75 13.875 C18.54921875 13.89304688 19.3484375 13.91109375 20.171875 13.9296875 C20.77515625 13.95289063 21.3784375 13.97609375 22 14 C22 18.30965392 19.50735643 20.76730049 17.0625 24.125 C12.96626273 29.92928462 9.19790437 35.81454431 5.8125 42.0625 C5.42650635 42.75166504 5.0405127 43.44083008 4.64282227 44.15087891 C2.30764683 48.57400752 1.42311909 51.88871111 2 57 C3.8646306 60.3832553 3.8646306 60.3832553 6 63 C9.83475164 62.78087133 10.94164113 62.05971606 13.6875 59.25 C16.01183815 56.27050007 16.01183815 56.27050007 16.921875 53.58984375 C22.06667146 41.2311479 37.44608163 25.71574434 49.1875 19.4375 C57.03331113 16.41881026 66.64089483 16.79081558 74.5 19.5625 C81.74651295 23.01150368 86.767962 28.67672896 90.1171875 35.9296875 C92.68018438 44.84347309 92.30272375 55.3944978 88.27734375 63.7890625 C85.19322951 69.12731529 81.71335241 74.08559295 78 79 C78.55558594 79.24878906 79.11117187 79.49757813 79.68359375 79.75390625 C82.41074982 81.22095985 84.65663723 82.98886002 87.0625 84.9375 C87.91972656 85.62714844 88.77695313 86.31679687 89.66015625 87.02734375 C91.54469703 88.61614692 93.29868089 90.22058755 95 92 C93.30961462 99.5128239 87.3862771 105.89453615 81 110 C78.04146795 111.15638055 75.05192834 112.12232126 72 113 C69.89603589 107.06682122 68.24028238 101.17222879 67 95 C60.31221297 96.01539482 60.31221297 96.01539482 54.1875 98.6875 C51.28410515 100.42953691 50.24518579 99.78363861 47 99 C45.99582031 98.79761719 44.99164063 98.59523438 43.95703125 98.38671875 C42.91933594 98.15597656 41.88164063 97.92523438 40.8125 97.6875 C39.76707031 97.46449219 38.72164062 97.24148437 37.64453125 97.01171875 C35 96 35 96 33.63671875 93.89453125 C33.42660156 93.26933594 33.21648437 92.64414063 33 92 C31.35 92 29.7 92 28 92 C27.67 94.31 27.34 96.62 27 99 C26.01 99 25.02 99 24 99 C23.82984375 98.34773438 23.6596875 97.69546875 23.484375 97.0234375 C21.61341163 90.27602705 19.85072461 84.4296401 13.5625 80.625 C7.99511979 78.06844211 1.9850826 78.67155034 -4 79 C-4.00257812 78.443125 -4.00515625 77.88625 -4.0078125 77.3125 C-4.34139696 70.7297666 -6.43686134 66.72343627 -11 62 C-13.41009656 60.00640556 -14.99885646 59.00038118 -18 58 C-18.33 45.46 -18.66 32.92 -19 20 C-15.7 20 -12.4 20 -9 20 C-8.75765625 19.13117188 -8.5153125 18.26234375 -8.265625 17.3671875 C-4.53312303 4.53312303 -4.53312303 4.53312303 0 0 Z " fill="#D99B62" transform="translate(81,123)"/>
<path d="M0 0 C0 51.48 0 102.96 0 156 C-16.17 156 -32.34 156 -49 156 C-49.495 153.525 -49.495 153.525 -50 151 C-59.24 151 -68.48 151 -78 151 C-78 153.31 -78 155.62 -78 158 C-78.33 158 -78.66 158 -79 158 C-79.04487549 157.25016846 -79.08975098 156.50033691 -79.13598633 155.7277832 C-79.35026913 152.25522765 -79.58131142 148.78396946 -79.8125 145.3125 C-79.88275391 144.13365234 -79.95300781 142.95480469 -80.02539062 141.74023438 C-80.52429844 134.45618034 -81.60200604 127.72188109 -83.5625 120.68237305 C-84 118 -84 118 -82.1875 114.5 C-80.69921875 113.2109375 -80.69921875 113.2109375 -79 112 C-78.44957031 111.51789063 -77.89914062 111.03578125 -77.33203125 110.5390625 C-71.2949527 105.87931317 -65.38121692 106.61556162 -58 107 C-58 102.71 -58 98.42 -58 94 C-57.67 94 -57.34 94 -57 94 C-57 98.62 -57 103.24 -57 108 C-55.35 108.66 -53.7 109.32 -52 110 C-49.56700516 111.55297543 -47.31773671 113.27305892 -45 115 C-44.9071875 113.9171875 -44.9071875 113.9171875 -44.8125 112.8125 C-43.70458888 108.97742304 -42.16384761 107.40727535 -39 105 C-33.83131761 104.2616168 -31.28441033 105.24154403 -27 108 C-27.03758423 106.90276611 -27.07516846 105.80553223 -27.1138916 104.67504883 C-27.46849975 94.3174208 -27.82167314 83.9597447 -28.17345428 73.60202026 C-28.354339 68.27746136 -28.53572313 62.95292045 -28.71826172 57.62841797 C-28.89451452 52.48672412 -29.06943828 47.34498659 -29.24345398 42.20321655 C-29.30996202 40.24488727 -29.37694296 38.28657399 -29.44441223 36.32827759 C-29.5390763 33.57826803 -29.63203461 30.82820558 -29.72460938 28.078125 C-29.75266159 27.27467148 -29.78071381 26.47121796 -29.80961609 25.64341736 C-29.88317559 23.42910456 -29.94230454 21.21477379 -30 19 C-30.02969879 18.25071732 -30.05939758 17.50143463 -30.08999634 16.72944641 C-30.14039262 14.82006031 -30.07905334 12.90841443 -30 11 C-27.91796875 9.01171875 -27.91796875 9.01171875 -25.1875 7.6875 C-21.54531403 5.95947305 -21.54531403 5.95947305 -18.55078125 3.37109375 C-16.2074956 1.2993223 -14.06867126 1.51790381 -11 1.375 C-7.24764248 1.18186395 -3.63995681 0 0 0 Z " fill="#4F572C" transform="translate(429,109)"/>
<path d="M0 0 C3.20731447 1.35694074 5.57437856 3.24943506 8.14453125 5.5859375 C10.89629296 7.68306958 13.99605997 9.28346284 17 11 C17 20.57 17 30.14 17 40 C24.89740218 34.07694837 31.96536834 28.67831069 37 20.125 C39.65941767 15.84453279 42.23853934 14.59099232 47.046875 13.33984375 C49 13 49 13 51 13 C48.1223613 23.97099754 41.22699803 31.65590712 33.9375 40.0625 C24.79966952 50.60593079 18.62717523 58.88883128 18.8125 73.25 C18.82171258 73.98146618 18.83092516 74.71293236 18.84041691 75.46656418 C18.93171283 81.11474555 19.17438854 86.74048154 19.49194336 92.37988281 C20.02559607 102.47769172 20.2156369 112.56181027 20.31640625 122.671875 C20.33706329 124.45933413 20.35806139 126.24678935 20.37937927 128.03424072 C20.4336995 132.66339885 20.48349263 137.29259411 20.53222656 141.92181396 C20.58311384 146.67577284 20.63844325 151.42968001 20.69335938 156.18359375 C20.79983355 165.45568465 20.90150824 174.7278211 21 184 C17.7 184.33 14.4 184.66 11 185 C11.04640625 184.28714844 11.0928125 183.57429687 11.140625 182.83984375 C11.38813906 176.27188139 11.12004677 172.23357292 7 167 C2.8452392 164.26972862 -2.17914187 164.62916476 -7 165 C-8.3409335 165.30130753 -9.67772262 165.62520482 -11 166 C-11.11845716 158.78727497 -10.96710446 151.63643435 -10.5625 144.4375 C-9.97787484 133.90483449 -9.70836696 123.36798877 -9.43978882 112.8236084 C-9.16843302 102.19571266 -8.83330847 91.57846849 -8.21679688 80.96362305 C-7.78188606 72.6070064 -8.49147623 66.95909233 -13.5625 60.0625 C-20.68022892 49.89358232 -26.57552644 38.98565748 -30 27 C-27.03 26.34 -24.06 25.68 -21 25 C-20.72027344 25.72703125 -20.44054688 26.4540625 -20.15234375 27.203125 C-17.43668942 34.01409085 -14.27551214 40.2468247 -10.453125 46.50390625 C-9 49 -9 49 -8 52 C-7.34 52 -6.68 52 -6 52 C-6.02618408 50.89599854 -6.05236816 49.79199707 -6.0793457 48.65454102 C-6.17046842 44.52291468 -6.22747242 40.39137546 -6.2746582 36.2590332 C-6.29966208 34.47730528 -6.33367707 32.69567847 -6.37719727 30.91430664 C-6.80484274 12.94816562 -6.80484274 12.94816562 -2.18041992 6.76928711 C-0.71362077 4.57075692 -0.38833464 2.59102877 0 0 Z " fill="#52311B" transform="translate(43,41)"/>
<path d="M0 0 C0.66 13.2 1.32 26.4 2 40 C6.40713171 33.70409755 10.20597874 28.17344992 13.4375 21.375 C13.78748047 20.65699219 14.13746094 19.93898438 14.49804688 19.19921875 C15.33967537 17.46984512 16.17102109 15.73547274 17 14 C19.31 14.66 21.62 15.32 24 16 C23.3197903 20.26750611 21.93584152 24.10579188 20.25 28.0625 C19.95923584 28.75802979 19.66847168 29.45355957 19.36889648 30.17016602 C17.11532864 35.2469956 14.28851363 39.44349026 10.94558716 43.86355591 C5.27803389 51.61039077 2.05459187 57.55441814 2.52734375 67.25 C2.56420288 68.80707924 2.56420288 68.80707924 2.60180664 70.39561462 C2.68372456 73.52395114 2.79689727 76.64981366 2.91862106 79.77680588 C3.07333592 84.00346667 3.18466549 88.23147389 3.30493164 92.45922852 C3.62599435 103.45335462 4.00426146 114.44520178 4.39068604 125.43719482 C4.57479356 130.70086094 4.75396022 135.96469526 4.93359375 141.22851562 C5.28433946 151.48584351 5.64039361 161.74297919 6 172 C5.08347656 171.5153125 4.16695313 171.030625 3.22265625 170.53125 C-0.5958762 168.71686852 -2.82047796 168.39206952 -7 169 C-9.8660458 171.24299236 -11.59928073 172.85949132 -12.8125 176.3125 C-12.874375 176.869375 -12.93625 177.42625 -13 178 C-13.8596637 177.55966934 -13.8596637 177.55966934 -14.73669434 177.11044312 C-16.94664363 175.98291511 -16.94664363 175.98291511 -19.11975098 175.19351196 C-21.60311312 174.05382586 -23.17123906 173.04697291 -25 171 C-26.11301572 166.44258872 -25.81196566 161.92363124 -25.59375 157.2734375 C-25.55675736 155.85753576 -25.52319628 154.44154084 -25.49279785 153.02548218 C-25.39871644 149.16167697 -25.25246254 145.30143052 -25.09521484 141.43974304 C-24.96678898 138.14901561 -24.86599701 134.85766751 -24.76512146 131.56599808 C-24.44478169 121.14149539 -24.03693639 110.7212307 -23.60931396 100.30065918 C-23.317576 93.15983903 -23.03720658 86.01856272 -22.75654602 78.87730026 C-22.65901723 76.42124927 -22.55848766 73.96533659 -22.45739746 71.50942993 C-22.28761906 67.34008919 -22.13824346 63.17051033 -22 59 C-21.96164536 57.94758118 -21.92329071 56.89516235 -21.8837738 55.81085205 C-21.86404007 54.91791443 -21.84430634 54.02497681 -21.82397461 53.10498047 C-21.80483505 52.36859344 -21.7856955 51.63220642 -21.76597595 50.87350464 C-22.20619915 47.34925056 -24.47217368 45.70334621 -27.0625 43.5 C-36.86056144 34.63128124 -46.40518784 21.49456443 -48 8 C-45.36 7.01 -42.72 6.02 -40 5 C-39.52691406 5.95519531 -39.05382812 6.91039062 -38.56640625 7.89453125 C-31.94197795 21.86335916 -31.94197795 21.86335916 -21 32 C-20.67 23.75 -20.34 15.5 -20 7 C-17.97875 6.5875 -15.9575 6.175 -13.875 5.75 C-10.092368 4.88881254 -3.1543895 0 0 0 Z " fill="#52311B" transform="translate(397,46)"/>
<path d="M0 0 C2.375 -0.1875 2.375 -0.1875 5 0 C5.99 1.485 5.99 1.485 7 3 C9.60612405 3.84148818 9.60612405 3.84148818 12.625 4.375 C20.45576556 6.17776617 26.51180296 9.09508148 31 16 C31.6876345 17.65812575 32.3574852 19.32387442 33 21 C31.68644531 20.96519531 30.37289062 20.93039063 29.01953125 20.89453125 C27.28386699 20.86638534 25.54818885 20.83908604 23.8125 20.8125 C22.94818359 20.78736328 22.08386719 20.76222656 21.19335938 20.73632812 C16.37726521 20.68097072 12.78965996 20.63993712 9 24 C8.25823993 27.52513528 8.25823993 27.52513528 8 31 C7.34 31.66 6.68 32.32 6 33 C5.99759596 35.52656213 5.99759596 35.52656213 7 38 C8.79275564 39.51923132 8.79275564 39.51923132 11.1875 40.5 C12.07566406 40.90605469 12.96382813 41.31210937 13.87890625 41.73046875 C19.5165305 44.02362004 25.23557904 46.04807071 31 48 C29.60609461 51.15719572 27.96365028 53.2812653 25.5 55.6875 C24.8915625 56.28949219 24.283125 56.89148438 23.65625 57.51171875 C20.06255693 60.7409571 16.5101523 60.27554925 11.875 60.203125 C4.30288948 59.66813893 -0.2828666 56.32441625 -5.921875 51.42578125 C-8 49 -8 49 -12 41 C-31.14 41 -50.28 41 -70 41 C-69.34 42.32 -68.68 43.64 -68 45 C-67.75363388 47.70017269 -67.90934334 50.28030006 -68 53 C-67.01 52.505 -66.02 52.01 -65 51.5 C-59.71801739 49.25915889 -55.24702837 49.22218249 -49.75 51.125 C-45.89540172 53.75313519 -43.53302678 56.51403477 -42.53515625 61.16796875 C-42.28500727 63.10405329 -42.13431391 65.0524483 -42 67 C-41.195625 66.484375 -40.39125 65.96875 -39.5625 65.4375 C-34.98281839 63.5895583 -31.73148471 63.75755977 -27 65 C-22.25422071 67.46415463 -18.92879653 70.52066414 -16 75 C-16 77.64 -16 80.28 -16 83 C-46.69 83 -77.38 83 -109 83 C-109.061875 74.46125 -109.12375 65.9225 -109.1875 57.125 C-109.21481201 54.42844238 -109.24212402 51.73188477 -109.27026367 48.95361328 C-109.27902217 46.82585092 -109.2866676 44.69808356 -109.29296875 42.5703125 C-109.30831665 41.457771 -109.32366455 40.34522949 -109.33947754 39.19897461 C-109.33984009 38.14347412 -109.34020264 37.08797363 -109.34057617 36.00048828 C-109.34723801 35.08115509 -109.35389984 34.1618219 -109.36076355 33.21463013 C-109.24171158 32.48380219 -109.12265961 31.75297424 -109 31 C-102.64987901 26.76658601 -94.37320758 27.17302598 -87 28 C-76.48075551 31.62854838 -76.48075551 31.62854838 -73.70243835 36.07806396 C-72.1324247 38.24635862 -72.1324247 38.24635862 -69.43733215 38.48101807 C-67.90177925 38.4676944 -67.90177925 38.4676944 -66.33520508 38.45410156 C-65.17422806 38.45379944 -64.01325104 38.45349731 -62.8170929 38.45318604 C-60.93729988 38.42221832 -60.93729988 38.42221832 -59.01953125 38.390625 C-57.09484261 38.38213531 -57.09484261 38.38213531 -55.13127136 38.37347412 C-51.72299955 38.35821488 -48.31541161 38.31893221 -44.90740967 38.2746582 C-41.4286016 38.23371078 -37.94968282 38.21546434 -34.47070312 38.1953125 C-27.64685482 38.15243703 -20.82346025 38.0841831 -14 38 C-14.48597656 37.24074219 -14.97195312 36.48148438 -15.47265625 35.69921875 C-17.84754597 31.50216301 -17.58937376 28.17857801 -16.34375 23.57421875 C-13.81113114 16.38027123 -10.01700003 10.96576597 -3.0625 7.5625 C-2.381875 7.376875 -1.70125 7.19125 -1 7 C-0.67 4.69 -0.34 2.38 0 0 Z " fill="#596231" transform="translate(109,215)"/>
<path d="M0 0 C2.25 0.8125 2.25 0.8125 3.25 1.8125 C4.26229338 14.16247925 -0.78546505 23.59164833 -7.53125 33.48828125 C-12.44643069 40.54733105 -12.44643069 40.54733105 -14.5 48.75 C-14.58507812 49.90822266 -14.58507812 49.90822266 -14.671875 51.08984375 C-14.71054687 51.94255859 -14.71054687 51.94255859 -14.75 52.8125 C-13.43 52.8125 -12.11 52.8125 -10.75 52.8125 C-9.21839397 50.86974547 -9.21839397 50.86974547 -8 48.3125 C-5.04898782 43.07370817 -1.72074846 38.31212622 3.25 34.8125 C6.22 34.3175 6.22 34.3175 9.25 33.8125 C9.25 63.8425 9.25 93.8725 9.25 124.8125 C2.32 124.8125 -4.61 124.8125 -11.75 124.8125 C-12.41 121.8425 -13.07 118.8725 -13.75 115.8125 C-16.37695093 114.01313265 -18.23201459 113.02766361 -21.125 111.9375 C-30.75422639 107.74950934 -39.92278048 101.49848949 -44.75 91.8125 C-45.0625 88.125 -45.0625 88.125 -44.75 84.8125 C-42.75 82.8125 -42.75 82.8125 -40.1875 82.3125 C-32.3321731 83.455093 -25.7299829 89.8995276 -20.75 95.8125 C-19.39396427 97.79717752 -18.05640101 99.79480473 -16.75 101.8125 C-16.60003542 94.81162206 -16.49116486 87.50970006 -18.75 80.8125 C-22.34926557 77.26294805 -26.28725997 75.66313635 -30.85742188 73.75390625 C-34.16070277 72.1107882 -36.71447363 69.70874936 -39.375 67.1875 C-40.31601562 66.30835938 -41.25703125 65.42921875 -42.2265625 64.5234375 C-48.39841184 57.89299873 -48.39841184 57.89299873 -49.17578125 53.29296875 C-49.11970703 52.15794922 -49.11970703 52.15794922 -49.0625 51 C-49.03800781 50.23042969 -49.01351563 49.46085937 -48.98828125 48.66796875 C-48.75 46.8125 -48.75 46.8125 -47.75 45.8125 C-43.6058297 45.40620879 -41.46089001 45.309922 -38.00390625 47.75390625 C-34.30512079 50.09395419 -31.13221912 50.66647962 -26.875 51.0625 C-26.18664062 51.13984375 -25.49828125 51.2171875 -24.7890625 51.296875 C-23.11093135 51.48333402 -21.43062012 51.64999729 -19.75 51.8125 C-21.21183629 47.39432439 -23.66026764 44.18079256 -26.5625 40.625 C-32.37430234 33.24260984 -37.36036835 26.47662036 -37.21875 16.72265625 C-36.62000637 14.28277596 -35.71400665 13.34731755 -33.75 11.8125 C-30.9375 11.1875 -30.9375 11.1875 -27.75 11.8125 C-21.86159128 16.21790208 -19.82948737 23.04804991 -17.75 29.8125 C-16.07699465 25.51048624 -14.56436968 21.25594951 -13.3125 16.8125 C-8.15537715 -0.55604844 -8.15537715 -0.55604844 0 0 Z " fill="#363F22" transform="translate(419.75,304.1875)"/>
<path d="M0 0 C11.7152318 2.53904263 21.44881609 7.4563751 29 17 C34 25.29683698 34 25.29683698 34 29 C34.59167969 28.72285156 35.18335938 28.44570313 35.79296875 28.16015625 C36.58316406 27.79792969 37.37335938 27.43570312 38.1875 27.0625 C38.96480469 26.70285156 39.74210937 26.34320313 40.54296875 25.97265625 C50.98792897 21.83784688 62.55666245 23.32416405 72.73828125 27.39453125 C83.19464779 32.54131765 91.0965264 40.92163633 94.9375 52 C95.5739001 54.13403625 96 55.77492937 96 58 C56.07 58 16.14 58 -25 58 C-24.34 56.35 -23.68 54.7 -23 53 C-20.20703125 52.21484375 -20.20703125 52.21484375 -16.8125 51.9375 C-11.15896034 51.26132914 -7.47919806 50.56299846 -3 47 C-1.95489639 44.37897003 -1.95489639 44.37897003 -2 42 C-5.55883589 40.22058205 -9.24328222 41.02603613 -13 42 C-16.2111419 43.74098055 -19.11263744 45.7679254 -22 48 C-21.54548816 46.26982492 -21.08621143 44.54090123 -20.625 42.8125 C-20.36976562 41.84957031 -20.11453125 40.88664062 -19.8515625 39.89453125 C-19.57054687 38.93933594 -19.28953125 37.98414063 -19 37 C-18.69449219 35.64648438 -18.69449219 35.64648438 -18.3828125 34.265625 C-17 32 -17 32 -13.515625 30.77734375 C-12.09811812 30.47605718 -10.67577623 30.19684819 -9.25 29.9375 C-2.65644109 28.67554596 2.1007271 26.8992729 7 22 C7.2500773 19.45809998 7.2500773 19.45809998 7 17 C6.02475536 15.80119853 6.02475536 15.80119853 4.21484375 15.91015625 C-2.45851951 16.35657335 -6.00328895 18.7380994 -11 23 C-11.99 23.66 -12.98 24.32 -14 25 C-12.07120434 17.00927513 -8.01953792 11.41913837 -3.1796875 4.94140625 C-1.05098944 2.24632359 -1.05098944 2.24632359 0 0 Z " fill="#555E2E" transform="translate(83,371)"/>
<path d="M0 0 C-0.33 0.70125 -0.66 1.4025 -1 2.125 C-2.09044562 5.26003116 -2.15322643 7.70563182 -2 11 C-1.41508789 11.0093457 -0.83017578 11.01869141 -0.22753906 11.02832031 C2.4324858 11.08213279 5.09077222 11.16575449 7.75 11.25 C8.67039062 11.26417969 9.59078125 11.27835937 10.5390625 11.29296875 C11.87324219 11.34130859 11.87324219 11.34130859 13.234375 11.390625 C14.45979004 11.4220459 14.45979004 11.4220459 15.70996094 11.45410156 C18 12 18 12 19.92871094 14.01147461 C22.67601212 16.64900032 24.1464719 16.47806458 27.90625 16.42578125 C29.10765625 16.41812744 30.3090625 16.41047363 31.546875 16.40258789 C33.50367188 16.35799438 33.50367188 16.35799438 35.5 16.3125 C36.86977389 16.2947158 38.23956736 16.27838786 39.609375 16.26342773 C43.29848475 16.21615387 46.98641297 16.1399966 50.67480469 16.05395508 C53.03053625 15.99929142 55.38633225 15.94941057 57.7421875 15.90039062 C67.48095723 15.69345109 77.22038954 15.47186418 86.95361328 15.07794189 C88.33454453 15.02534558 89.71577115 14.98006423 91.09716797 14.94158936 C93.12838053 14.88389256 95.1573638 14.80198538 97.1875 14.71484375 C98.35667969 14.67351318 99.52585938 14.63218262 100.73046875 14.58959961 C104.66513691 13.88005484 106.91282954 12.5088977 110 10 C110.33 9.01 110.66 8.02 111 7 C115.61695473 2.42173484 120.92211196 1.73093585 127.13330078 1.70385742 C129.6153165 1.74869598 132.09353451 1.83038055 134.57421875 1.921875 C138.173679 2.04749992 141.46166038 1.75454092 145 1 C145 1.33 145 1.66 145 2 C146.18335938 2.09796875 147.36671875 2.1959375 148.5859375 2.296875 C166.7431792 3.95224701 166.7431792 3.95224701 173 8 C174.75390625 10.1328125 174.75390625 10.1328125 176 12 C171.27958327 16.88900304 165.40062187 17.67170675 159 19 C158.30390625 19.15686279 157.6078125 19.31372559 156.890625 19.4753418 C149.44595566 21.08584945 141.95243143 21.8682217 134.375 22.5625 C133.67694244 22.62692291 132.97888489 22.69134583 132.25967407 22.75772095 C116.52311131 24.18710747 100.79763785 24.81572174 85 25 C83.62917267 25.01643555 83.62917267 25.01643555 82.23065186 25.03320312 C-41.49940393 26.43328946 -41.49940393 26.43328946 -60 12 C-60 11.34 -60 10.68 -60 10 C-53.42178298 6.21613991 -47.41145134 4.92084495 -39.9375 3.875 C-38.82930908 3.71032227 -37.72111816 3.54564453 -36.5793457 3.37597656 C-34.38129931 3.05190871 -32.18233284 2.73401014 -29.98242188 2.42285156 C-27.46968316 2.06659227 -24.96122349 1.69188243 -22.453125 1.3046875 C-14.91763615 0.19468811 -7.61460812 -0.25523826 0 0 Z " fill="#828144" transform="translate(152,334)"/>
<path d="M0 0 C0.721875 0.12375 1.44375 0.2475 2.1875 0.375 C3.82872843 5.53314648 3.04095534 8.38121144 0.6875 13.25 C-1.86583014 18.02335845 -4.82754874 22.10103797 -8.265625 26.26171875 C-10.5912427 29.43888839 -11.65487979 32.62975814 -12.8125 36.375 C-12.29300781 35.89289063 -11.77351563 35.41078125 -11.23828125 34.9140625 C-6.51611434 30.63705366 -3.15519016 27.63717178 3.375 27.125 C6.1875 27.375 6.1875 27.375 8.1875 29.375 C8.75 31.625 8.75 31.625 8.1875 34.375 C3.62584375 40.43126034 -3.66878947 42.77495943 -10.8125 44.375 C-12.81159295 44.4352276 -14.81399084 44.45220838 -16.8125 44.375 C-17.31721197 46.14449612 -17.81610685 47.91565223 -18.3125 49.6875 C-18.5909375 50.67363281 -18.869375 51.65976562 -19.15625 52.67578125 C-19.93062196 55.39787203 -19.93062196 55.39787203 -19.8125 58.375 C-18.843125 57.570625 -17.87375 56.76625 -16.875 55.9375 C-12.82908785 53.03696828 -8.78926215 51.99884937 -3.8125 52.375 C-2.8225 53.035 -1.8325 53.695 -0.8125 54.375 C-0.8125 56.5625 -0.8125 56.5625 -1.8125 59.375 C-6.95238289 64.4571314 -13.11808835 65.13521804 -20.0546875 65.72265625 C-20.96476562 65.93792969 -21.87484375 66.15320313 -22.8125 66.375 C-23.4725 67.695 -24.1325 69.015 -24.8125 70.375 C-36.0325 70.375 -47.2525 70.375 -58.8125 70.375 C-58.833125 67.405 -58.85375 64.435 -58.875 61.375 C-58.884104 60.45589844 -58.89320801 59.53679687 -58.90258789 58.58984375 C-58.91058628 56.1831038 -58.86817355 53.78106552 -58.8125 51.375 C-58.81588379 50.6231543 -58.81926758 49.87130859 -58.82275391 49.09667969 C-58.73046875 46.984375 -58.73046875 46.984375 -57.8125 43.375 C-55.40457212 41.62263364 -53.75104221 40.67538187 -51.0625 39.625 C-44.51264642 36.83927389 -38.87571828 34.14632462 -35.8125 27.375 C-35.56113967 24.16583829 -35.56113967 24.16583829 -35.8125 21.375 C-41.56666341 20.91466693 -44.40231411 21.62165031 -48.8125 25.375 C-50.47625566 27.38421328 -52.01710464 29.43532381 -53.515625 31.5703125 C-54.8125 33.375 -54.8125 33.375 -56.8125 35.375 C-56.91353455 29.76758264 -56.57332036 24.42693239 -55.8125 18.875 C-55.71710937 18.14796875 -55.62171875 17.4209375 -55.5234375 16.671875 C-55.29103833 14.90564133 -55.05243362 13.14022594 -54.8125 11.375 C-51.5546875 10.15234375 -51.5546875 10.15234375 -47.8125 9.375 C-45.6953125 10.81640625 -45.6953125 10.81640625 -43.9375 12.9375 C-42.00728828 14.96937837 -42.00728828 14.96937837 -39.8125 16.375 C-37.24824374 16.23327945 -35.5001151 15.55428342 -33.18359375 14.47265625 C-27.40908204 11.79944737 -22.1970121 11.13810598 -15.875 11.25 C-15.19115234 11.25902344 -14.50730469 11.26804687 -13.80273438 11.27734375 C-12.13916713 11.30061042 -10.47578369 11.33646833 -8.8125 11.375 C-8.69390625 10.61832031 -8.5753125 9.86164063 -8.453125 9.08203125 C-7.37338535 4.51947286 -4.93980638 0.65864085 0 0 Z " fill="#545D2E" transform="translate(82.8125,358.625)"/>
<path d="M0 0 C1.32 0 2.64 0 4 0 C7.54784971 5.37899794 8.70887831 9.58076669 9 16 C9.56203125 15.67257813 10.1240625 15.34515625 10.703125 15.0078125 C13.26859964 13.88214506 14.96842277 13.7931889 17.75 13.875 C18.54921875 13.89304688 19.3484375 13.91109375 20.171875 13.9296875 C20.77515625 13.95289063 21.3784375 13.97609375 22 14 C22 18.30965392 19.50735643 20.76730049 17.0625 24.125 C12.96626273 29.92928462 9.19790437 35.81454431 5.8125 42.0625 C5.42650635 42.75166504 5.0405127 43.44083008 4.64282227 44.15087891 C2.30385241 48.58119465 1.46735308 51.88032317 2 57 C7.06289795 67.12579589 17.94477479 73.38646371 28.14550781 77.46972656 C32.38073107 78.68074617 35.37013322 77.00268512 39 75 C39.99 75 40.98 75 42 75 C41.835 75.61875 41.67 76.2375 41.5 76.875 C40.92365356 78.96063386 40.92365356 78.96063386 41 81 C42.0621875 81.13535156 43.124375 81.27070313 44.21875 81.41015625 C51.95306673 82.53516439 57.93954014 83.50983394 63.71484375 89.18359375 C65.09268999 91.1310056 65.59455821 92.66486058 66 95 C65.40832031 95.10957031 64.81664062 95.21914062 64.20703125 95.33203125 C60.47865547 96.08013928 57.5211913 96.68017807 54.25 98.6875 C51.29594501 100.41069875 50.27646787 99.79231798 47 99 C45.99582031 98.79761719 44.99164063 98.59523438 43.95703125 98.38671875 C42.91933594 98.15597656 41.88164063 97.92523438 40.8125 97.6875 C39.76707031 97.46449219 38.72164062 97.24148437 37.64453125 97.01171875 C35 96 35 96 33.63671875 93.89453125 C33.42660156 93.26933594 33.21648437 92.64414063 33 92 C31.35 92 29.7 92 28 92 C27.67 94.31 27.34 96.62 27 99 C26.01 99 25.02 99 24 99 C23.82984375 98.34773438 23.6596875 97.69546875 23.484375 97.0234375 C21.61341163 90.27602705 19.85072461 84.4296401 13.5625 80.625 C7.99511979 78.06844211 1.9850826 78.67155034 -4 79 C-4.00257812 78.443125 -4.00515625 77.88625 -4.0078125 77.3125 C-4.34139696 70.7297666 -6.43686134 66.72343627 -11 62 C-13.41009656 60.00640556 -14.99885646 59.00038118 -18 58 C-18.33 45.46 -18.66 32.92 -19 20 C-15.7 20 -12.4 20 -9 20 C-8.75765625 19.13117188 -8.5153125 18.26234375 -8.265625 17.3671875 C-4.53312303 4.53312303 -4.53312303 4.53312303 0 0 Z " fill="#A6995A" transform="translate(81,123)"/>
<path d="M0 0 C4.00016486 2.55507912 7.84178749 5.43490121 11 9 C11 9.66 11 10.32 11 11 C11.66 11.33 12.32 11.66 13 12 C12.72285156 12.6290625 12.44570313 13.258125 12.16015625 13.90625 C9.89485276 19.25913796 8.24575569 24.15306261 8 30 C7.9484375 30.93199219 7.896875 31.86398438 7.84375 32.82421875 C7.4846998 44.98704422 9.64132041 56.71939896 14.328125 67.9609375 C15 70 15 70 14 72 C13.59910156 71.26136719 13.19820313 70.52273437 12.78515625 69.76171875 C8.52973552 62.16757791 3.77332764 55.51013344 -2 49 C-2.61359375 48.30261719 -3.2271875 47.60523438 -3.859375 46.88671875 C-14.24495932 35.81320043 -27.59107781 28.72069466 -41 22 C-37.94839831 11.97026017 -32.29860147 4.01675004 -23 -1.125 C-15.13192283 -4.55436285 -7.65598309 -3.65861139 0 0 Z " fill="#7F7E44" transform="translate(268,159)"/>
<path d="M0 0 C0 19.14 0 38.28 0 58 C-4.29 58.66 -8.58 59.32 -13 60 C-19.07152418 62.86710864 -21.89561482 65.56789022 -25.08984375 71.42578125 C-25.39019531 71.94527344 -25.69054687 72.46476562 -26 73 C-26.33 73 -26.66 73 -27 73 C-27.97043663 67.10882504 -28.29722228 61.27823096 -28.53515625 55.31640625 C-28.57813339 54.30207016 -28.62111053 53.28773407 -28.66539001 52.24266052 C-28.75523209 50.1054464 -28.84338033 47.96816047 -28.92993164 45.83081055 C-29.0619329 42.57648107 -29.19946698 39.32242136 -29.33789062 36.06835938 C-29.42480578 33.9843886 -29.5114048 31.9004046 -29.59765625 29.81640625 C-29.63826675 28.85158829 -29.67887726 27.88677032 -29.72071838 26.89271545 C-29.82623905 24.26205964 -29.9164042 21.63143285 -30 19 C-30.03228195 18.21465378 -30.0645639 17.42930756 -30.0978241 16.62016296 C-30.14736713 14.74714666 -30.08428552 12.8717747 -30 11 C-27.91796875 9.01171875 -27.91796875 9.01171875 -25.1875 7.6875 C-21.54531403 5.95947305 -21.54531403 5.95947305 -18.55078125 3.37109375 C-16.2074956 1.2993223 -14.06867126 1.51790381 -11 1.375 C-7.24764248 1.18186395 -3.63995681 0 0 0 Z " fill="#A6995A" transform="translate(429,109)"/>
<path d="M0 0 C3.63 1.65 7.26 3.3 11 5 C14.16375537 5.38867441 16.64918306 5.58585053 19.75 5.4375 C20.45253906 5.43169922 21.15507812 5.42589844 21.87890625 5.41992188 C26.5547378 5.31148422 30.55729998 4.44794804 35 3 C35.06000084 9.05341781 35.05627452 15.10413868 35.01660156 21.15771484 C35.00459214 23.93718954 35.00391529 26.71525857 35.01464844 29.49462891 C35.02785025 33.53863754 35.00232775 37.58113123 34.95626831 41.62487793 C34.9437853 43.24616778 34.94350472 44.86759879 34.95559692 46.4888916 C35.04012056 59.61139674 35.04012056 59.61139674 32.37939453 63.16357422 C30.44140625 64.55859375 30.44140625 64.55859375 27 66 C26.81824219 65.39671875 26.63648437 64.7934375 26.44921875 64.171875 C25.10498371 59.89789693 23.91950945 56.47560649 21 53 C21 52.34 21 51.68 21 51 C20.21625 50.690625 19.4325 50.38125 18.625 50.0625 C16 49 16 49 14 48 C9.38 48 4.76 48 0 48 C0 32.16 0 16.32 0 0 Z " fill="#A5995A" transform="translate(0,113)"/>
<path d="M0 0 C2.375 -0.1875 2.375 -0.1875 5 0 C5.66 0.99 6.32 1.98 7 3 C9.60612405 3.84148818 9.60612405 3.84148818 12.625 4.375 C20.45576556 6.17776617 26.51180296 9.09508148 31 16 C31.6876345 17.65812575 32.3574852 19.32387442 33 21 C31.68644531 20.96519531 30.37289062 20.93039063 29.01953125 20.89453125 C27.28386699 20.86638534 25.54818885 20.83908604 23.8125 20.8125 C22.94818359 20.78736328 22.08386719 20.76222656 21.19335938 20.73632812 C16.37726521 20.68097072 12.78965996 20.63993712 9 24 C8.25823993 27.52513528 8.25823993 27.52513528 8 31 C7.34 31.66 6.68 32.32 6 33 C5.99759596 35.52656213 5.99759596 35.52656213 7 38 C8.79275564 39.51923132 8.79275564 39.51923132 11.1875 40.5 C12.07566406 40.90605469 12.96382812 41.31210937 13.87890625 41.73046875 C19.5165305 44.02362004 25.23557904 46.04807071 31 48 C29.60609461 51.15719572 27.96365028 53.2812653 25.5 55.6875 C24.8915625 56.28949219 24.283125 56.89148438 23.65625 57.51171875 C20.06255693 60.7409571 16.5101523 60.27554925 11.875 60.203125 C3.40211259 59.60449709 -2.45030233 55.27938015 -8 49 C-10.28169915 45.45344588 -12.13680772 41.77719889 -14 38 C-14.54011719 37.13117188 -15.08023438 36.26234375 -15.63671875 35.3671875 C-17.59321839 31.96994171 -17.44665263 29.89225859 -17 26 C-15.06207051 18.83658208 -11.92487153 13.53622977 -6 9 C-3.0625 7.5625 -3.0625 7.5625 -1 7 C-0.67 4.69 -0.34 2.38 0 0 Z " fill="#623118" transform="translate(109,215)"/>
<path d="M0 0 C2.125 0.375 2.125 0.375 4 1 C4.72265625 2.77734375 4.72265625 2.77734375 5 5 C3.55859375 6.75390625 3.55859375 6.75390625 1.4375 8.5625 C-3.40782083 13.11134141 -6.16619423 18.04106264 -9 24 C-9.51240234 24.94939453 -9.51240234 24.94939453 -10.03515625 25.91796875 C-14.02370426 34.32174664 -13.00618042 45.82481101 -10.375 54.5 C-8.32608615 59.86376375 -5.36651068 66.31674466 0 69 C0 69.66 0 70.32 0 71 C-9.17392022 72.85502063 -9.17392022 72.85502063 -13.3359375 70.90625 C-15.36833438 69.3800056 -17.18898256 67.78194148 -19 66 C-19.86625 65.195625 -20.7325 64.39125 -21.625 63.5625 C-22.40875 62.716875 -23.1925 61.87125 -24 61 C-24.47050781 60.53464844 -24.94101563 60.06929688 -25.42578125 59.58984375 C-38.26652043 46.08550048 -40.24243258 26.67064167 -40 9 C-38.90042969 9.02320313 -37.80085937 9.04640625 -36.66796875 9.0703125 C-24.00101839 9.26125712 -13.12266593 8.79113849 -2 2 C-1.34 1.34 -0.68 0.68 0 0 Z " fill="#D99B62" transform="translate(198,259)"/>
<path d="M0 0 C4.59646138 0.7301324 6.23370581 1.83982086 9.25 5.4375 C9.93578125 6.24058594 10.6215625 7.04367188 11.328125 7.87109375 C13.79857337 11.01687497 14.11871191 12.69016612 14.0625 16.625 C14.05347656 17.44226563 14.04445313 18.25953125 14.03515625 19.1015625 C14.02355469 19.72804687 14.01195313 20.35453125 14 21 C14.99 20.67 15.98 20.34 17 20 C23.71834217 19.27208016 29.58701614 19.67890559 35 24 C39.89649112 29.44054569 41.86628758 34.85761175 43 42 C42.39671875 42.47308594 41.7934375 42.94617188 41.171875 43.43359375 C35.43761993 48.17822738 32.51828409 51.9926008 30 59 C24.72 58.67 19.44 58.34 14 58 C13.608125 56.783125 13.21625 55.56625 12.8125 54.3125 C10.8844798 49.19826802 8.20958071 46.03113767 3.1875 43.6875 C2.465625 43.460625 1.74375 43.23375 1 43 C-0.14236247 33.95105002 -0.1143406 24.97547064 -0.0625 15.875 C-0.0574735 14.33073062 -0.05291264 12.78645966 -0.04882812 11.2421875 C-0.03791697 7.49475813 -0.02071614 3.74738951 0 0 Z " fill="#7F7E44" transform="translate(63,181)"/>
<path d="M0 0 C0.99 0 1.98 0 3 0 C3.25652344 0.6290625 3.51304687 1.258125 3.77734375 1.90625 C7.44379754 10.10330493 12.68639647 16.34713538 21.0625 20 C22.031875 20.33 23.00125 20.66 24 21 C23.625 23.9375 23.625 23.9375 23 27 C20.16009875 28.41995063 17.8128395 28.08314042 14.63842773 28.03759766 C13.98625275 28.02959641 13.33407776 28.02159515 12.66213989 28.01335144 C10.50251841 27.9854292 8.34309615 27.94997065 6.18359375 27.9140625 C4.68669573 27.89230045 3.18979315 27.87085061 1.69288635 27.84970093 C-1.44528211 27.80417989 -4.58336506 27.75495122 -7.72143555 27.703125 C-11.75232521 27.63683953 -15.7832831 27.57959671 -19.81434727 27.52509499 C-22.9052258 27.48234067 -25.9960184 27.43489375 -29.08680534 27.38599777 C-30.57360626 27.36303474 -32.06043047 27.34153333 -33.54727364 27.32149124 C-35.62089959 27.29282115 -37.69432467 27.2578713 -39.76782227 27.22119141 C-40.94981705 27.20263092 -42.13181183 27.18407043 -43.34962463 27.16494751 C-46 27 -46 27 -47 26 C-47.52932515 21.50073622 -47.34178771 19.51756424 -44.8125 15.6875 C-40.93479328 11.9821358 -38.70275223 11.08807339 -33.375 10.8125 C-30 11 -30 11 -27 12 C-27 11.154375 -27 10.30875 -27 9.4375 C-25.54545045 4.43748594 -22.17675506 1.94973169 -18 -1 C-11.68507155 -3.10497615 -6.20392764 -1.6543807 0 0 Z " fill="#F9E4C8" transform="translate(293,33)"/>
<path d="M0 0 C-0.27789159 4.58521122 -2.29275956 6.78884416 -5.33203125 9.9609375 C-13.04634167 19.39154649 -15.80156822 32.77394046 -15.390625 44.75 C-14.80696272 49.60607013 -13.50669515 54.17048436 -12.15625 58.86328125 C-5.87272856 80.86094944 -3.17761948 103.72272188 -14.4453125 124.6484375 C-18.29008812 130.46390214 -23.13825862 136.14587406 -29 140 C-29.66 140 -30.32 140 -31 140 C-30.58625346 134.621295 -29.8510894 132.63713999 -26 129 C-15.97691404 114.35087437 -16.21283277 96.16908867 -19.25 79.25 C-20.50919773 72.72450239 -22.04059548 66.24336679 -23.64160156 59.79394531 C-26.93555659 46.45440972 -28.58662398 30.98528768 -21.640625 18.5703125 C-17.32546208 11.78616461 -8.8207617 0 0 0 Z " fill="#512814" transform="translate(324,165)"/>
<path d="M0 0 C1.64122843 5.15814648 0.85345534 8.00621144 -1.5 12.875 C-4.05333014 17.64835845 -7.01504874 21.72603797 -10.453125 25.88671875 C-12.7787427 29.06388839 -13.84237979 32.25475814 -15 36 C-14.48050781 35.51789063 -13.96101563 35.03578125 -13.42578125 34.5390625 C-8.70361434 30.26205366 -5.34269016 27.26217178 1.1875 26.75 C4 27 4 27 6 29 C6.5625 31.25 6.5625 31.25 6 34 C1.43834375 40.05626034 -5.85628947 42.39995943 -13 44 C-14.99909295 44.0602276 -17.00149084 44.07720838 -19 44 C-19.50471197 45.76949612 -20.00360685 47.54065223 -20.5 49.3125 C-20.7784375 50.29863281 -21.056875 51.28476562 -21.34375 52.30078125 C-22.11812196 55.02287203 -22.11812196 55.02287203 -22 58 C-21.030625 57.195625 -20.06125 56.39125 -19.0625 55.5625 C-15.01658785 52.66196828 -10.97676215 51.62384937 -6 52 C-5.01 52.66 -4.02 53.32 -3 54 C-3 56.1875 -3 56.1875 -4 59 C-9.13988289 64.0821314 -15.30558835 64.76021804 -22.2421875 65.34765625 C-25.13885207 65.70306717 -25.13885207 65.70306717 -26.3828125 68.05859375 C-26.58648437 68.69925781 -26.79015625 69.33992188 -27 70 C-27.99 70 -28.98 70 -30 70 C-29.67 67.69 -29.34 65.38 -29 63 C-29.59425781 62.75378906 -30.18851563 62.50757813 -30.80078125 62.25390625 C-34.83502625 59.95374169 -36.95118349 56.07241682 -39 52 C-39.80738898 48.98512555 -40.31649643 46.11880854 -40 43 C-39.34 42.34 -38.68 41.68 -38 41 C-34.63390826 41.08858136 -33.30271677 41.70618667 -30.875 44.0625 C-28.60628069 47.61682692 -27.35271857 51.00948022 -26 55 C-25.5196682 53.41701974 -25.04078388 51.83360022 -24.5625 50.25 C-24.29566406 49.36828125 -24.02882813 48.4865625 -23.75390625 47.578125 C-23.50511719 46.72734375 -23.25632812 45.8765625 -23 45 C-22.75507812 44.32324219 -22.51015625 43.64648438 -22.2578125 42.94921875 C-21.8923659 40.18622095 -22.8699533 38.90714633 -24.3125 36.5625 C-24.7765625 35.7684375 -25.240625 34.974375 -25.71875 34.15625 C-26.1415625 33.4446875 -26.564375 32.733125 -27 32 C-29.53166393 27.29833841 -29.60389677 22.2396926 -29 17 C-28.34 16.01 -27.68 15.02 -27 14 C-24.6875 14.125 -24.6875 14.125 -22 15 C-19.14159067 19.34054749 -18.12234877 23.9925978 -17 29 C-15.2473393 23.992398 -13.79531976 19.12710806 -12.6875 13.9375 C-10.94534404 6.81381516 -8.35536802 -0.73640532 0 0 Z " fill="#363F22" transform="translate(85,359)"/>
<path d="M0 0 C5.53773906 2.65064813 8.30578342 8.10173377 10.86328125 13.45703125 C11.52734375 15.76953125 11.52734375 15.76953125 11.86328125 17.45703125 C13.51328125 16.46703125 15.16328125 15.47703125 16.86328125 14.45703125 C17.11893727 41.10206986 17.11893727 41.10206986 15.86328125 47.45703125 C14.87328125 48.11703125 13.88328125 48.77703125 12.86328125 49.45703125 C12.47140625 48.24015625 12.07953125 47.02328125 11.67578125 45.76953125 C9.72653924 40.623168 7.11323789 37.50701101 2.05078125 35.14453125 C-5.65817507 33.48181518 -8.74745606 34.29020438 -16.13671875 37.45703125 C-16.13671875 25.24703125 -16.13671875 13.03703125 -16.13671875 0.45703125 C-11.53940317 -1.84162654 -4.8854146 -1.24144905 0 0 Z " fill="#7F7F44" transform="translate(16.13671875,160.54296875)"/>
<path d="M0 0 C2.76608524 2.62778098 4.13926885 4.82197977 5.5 8.375 C5.5 9.365 5.5 10.355 5.5 11.375 C6.16 11.045 6.82 10.715 7.5 10.375 C11.48558966 9.99900098 13.82579625 10.00858492 17.375 11.9375 C20.0771041 15.03697236 20.26683515 17.33347594 20.5 21.375 C17.40635495 22.40621502 15.27682756 22.50177622 12.03466797 22.50439453 C10.35810623 22.50912277 10.35810623 22.50912277 8.64767456 22.51394653 C6.83820847 22.51091019 6.83820847 22.51091019 4.9921875 22.5078125 C3.1376445 22.50924759 3.1376445 22.50924759 1.24563599 22.51071167 C-2.03865308 22.51156705 -5.32289494 22.50753796 -8.60717773 22.50195312 C-10.62599181 22.49999904 -12.64476252 22.50194979 -14.66357422 22.50537109 C-18.52834107 22.51152141 -22.39304303 22.51080779 -26.2578125 22.5078125 C-27.46817169 22.50983673 -28.67853088 22.51186096 -29.92556763 22.51394653 C-31.03697113 22.51079437 -32.14837463 22.50764221 -33.29345703 22.50439453 C-34.27702179 22.50359894 -35.26058655 22.50280334 -36.2739563 22.50198364 C-38.5 22.375 -38.5 22.375 -39.5 21.375 C-39.91194057 18.42275928 -40.0560236 16.27542627 -38.453125 13.6796875 C-36.65470674 11.4898488 -35.05678931 9.65339466 -32.5 8.375 C-30.95976004 8.30549459 -29.41665012 8.29047643 -27.875 8.3125 C-26.64910156 8.32603516 -26.64910156 8.32603516 -25.3984375 8.33984375 C-24.45871094 8.35724609 -24.45871094 8.35724609 -23.5 8.375 C-22.943125 7.281875 -22.38625 6.18875 -21.8125 5.0625 C-17.05997661 -3.03317777 -8.18551104 -3.80041584 0 0 Z " fill="#F9E5C8" transform="translate(185.5,48.625)"/>
<path d="M0 0 C2.25 0.8125 2.25 0.8125 3.25 1.8125 C4.26778601 14.22948937 -0.85972275 23.57296949 -7.55859375 33.546875 C-11.79506213 39.86004357 -15.25905433 45.12101779 -15.75 52.8125 C-16.74 52.8125 -17.73 52.8125 -18.75 52.8125 C-18.97042969 52.12542969 -19.19085938 51.43835938 -19.41796875 50.73046875 C-21.11403631 47.01503629 -23.4662238 44.24885256 -26.0625 41.125 C-32.11450938 33.59275644 -37.36469093 26.77433792 -37.21875 16.72265625 C-36.62000637 14.28277596 -35.71400665 13.34731755 -33.75 11.8125 C-30.9375 11.1875 -30.9375 11.1875 -27.75 11.8125 C-21.86159128 16.21790208 -19.82948737 23.04804991 -17.75 29.8125 C-16.07699465 25.51048624 -14.56436968 21.25594951 -13.3125 16.8125 C-8.15537715 -0.55604844 -8.15537715 -0.55604844 0 0 Z " fill="#363E22" transform="translate(419.75,304.1875)"/>
<path d="M0 0 C4.79278415 1.49521934 8.78609111 4.19234111 12.31640625 7.72265625 C13.21642609 15.24316103 11.97521365 23.21695761 11.31640625 30.72265625 C10.48238281 30.72523438 9.64835937 30.7278125 8.7890625 30.73046875 C-1.83237992 31.09546677 -7.39420651 34.23845242 -14.68359375 41.72265625 C-17.96370519 31.23801431 -20.33954044 19.46151489 -15.55859375 9.09765625 C-11.66290339 2.57944808 -8.02482139 -1.39857293 0 0 Z " fill="#7E7E44" transform="translate(359.68359375,185.27734375)"/>
<path d="M0 0 C0 11.22 0 22.44 0 34 C-4.29 34 -8.58 34 -13 34 C-19.43186538 36.90755558 -22.03114595 39.69118513 -25 46 C-25.33 46 -25.66 46 -26 46 C-27.19576049 38.20243583 -27.33603281 30.37181476 -27.5625 22.5 C-27.60577737 21.09113527 -27.64939431 19.68228093 -27.69335938 18.2734375 C-27.79890571 14.8490454 -27.90101798 11.42458708 -28 8 C-27.67 8 -27.34 8 -27 8 C-26.67 9.65 -26.34 11.3 -26 13 C-25.34 11.948125 -24.68 10.89625 -24 9.8125 C-17.82641572 1.14134032 -10.32151099 0 0 0 Z " fill="#7F7E44" transform="translate(429,167)"/>
<path d="M0 0 C3.63 1.65 7.26 3.3 11 5 C14.16375537 5.38867441 16.64918306 5.58585053 19.75 5.4375 C20.45253906 5.43169922 21.15507812 5.42589844 21.87890625 5.41992188 C26.5547378 5.31148422 30.55729998 4.44794804 35 3 C35.20638953 26.78877436 35.20638953 26.78877436 34 37 C33.05125 36.113125 32.1025 35.22625 31.125 34.3125 C24.96681496 29.00892023 17.28816595 24.85026116 9.0625 24.875 C8.20785156 24.87242187 7.35320313 24.86984375 6.47265625 24.8671875 C3.71418599 24.93676196 3.71418599 24.93676196 0 26 C0 17.42 0 8.84 0 0 Z " fill="#F2D7B0" transform="translate(0,113)"/>
<path d="M0 0 C3 1 3 1 5 4.1875 C9.0246425 12.76106793 10.19340459 22.64349326 11 32 C11.18175781 31.33613281 11.36351562 30.67226563 11.55078125 29.98828125 C12.89523291 25.26546387 14.14984737 21.07164661 17 17 C18.65 17.33 20.3 17.66 22 18 C22.60241173 25.8313525 20.50822044 32.98355913 17 40 C-2.45112705 42.21311898 -2.45112705 42.21311898 -8.02246094 38.73876953 C-11.6929202 35.10468419 -13.96119779 30.69577461 -16 26 C-16.29817627 25.36521729 -16.59635254 24.73043457 -16.90356445 24.07641602 C-18.65016672 20.26076956 -19.35336862 18.06010586 -18 14 C-16.3125 13.25 -16.3125 13.25 -14 13 C-9.4661597 16.00213749 -6.71077045 19.84274353 -3.6875 24.25 C-3.23310547 24.8996875 -2.77871094 25.549375 -2.31054688 26.21875 C-1.20045861 27.80792899 -0.09930349 29.40334173 1 31 C1.03980901 29.70392697 1.03980901 29.70392697 0.34375 27.33203125 C-1.68288732 18.87832651 -2.94928232 10.72846599 -2 2 C-1.34 1.34 -0.68 0.68 0 0 Z " fill="#444F28" transform="translate(354,389)"/>
<path d="M0 0 C4.70588235 0.70588235 4.70588235 0.70588235 6 2 C7.03817563 11.56604689 5.19831544 18.49867298 1 27 C-0.21875966 29.53676021 -1.42319525 32.08017047 -2.625 34.625 C-2.92615723 35.25720459 -3.22731445 35.88940918 -3.53759766 36.54077148 C-5.89665095 41.57093254 -7.66886934 46.6120902 -9 52 C-11.76480406 50.61759797 -12.4244399 48.6373506 -14 46 C-15.25856401 44.53343065 -16.55161268 43.09585188 -17.875 41.6875 C-23.55752965 35.3991124 -28.30803798 28.95087333 -29.3125 20.3125 C-29 18 -29 18 -27.8125 16.1875 C-26 15 -26 15 -23.625 14.4375 C-20.4219062 15.12387724 -19.14030998 16.50189806 -17.19921875 19.0859375 C-14.06818762 24.08334874 -12.01984056 29.19710719 -11 35 C-10.83564453 33.11667969 -10.83564453 33.11667969 -10.66796875 31.1953125 C-8.54952416 8.2611459 -8.54952416 8.2611459 -3.375 2.9375 C-2.59125 2.298125 -1.8075 1.65875 -1 1 C-0.67 0.67 -0.34 0.34 0 0 Z " fill="#353E21" transform="translate(38,311)"/>
<path d="M0 0 C0 10.23 0 20.46 0 31 C-1.32 30.67 -2.64 30.34 -4 30 C-13.75600412 29.13003785 -20.38833594 30.34504645 -29 35 C-29.33 27.08 -29.66 19.16 -30 11 C-26.7 9.02 -23.4 7.04 -20 5 C-19.01 4.01 -18.02 3.02 -17 2 C-14.1875 1.5234375 -14.1875 1.5234375 -11 1.375 C-7.24764248 1.18186395 -3.63995681 0 0 0 Z " fill="#F3D7B1" transform="translate(429,109)"/>
<path d="M0 0 C9 1.125 9 1.125 12.5 2.62890625 C13.24121094 2.94150391 13.98242188 3.25410156 14.74609375 3.57617188 C15.86177734 4.0644043 15.86177734 4.0644043 17 4.5625 C18.16208984 5.0565332 18.16208984 5.0565332 19.34765625 5.56054688 C21.23563476 6.36468587 23.1183893 7.18107171 25 8 C25.66 7.34 26.32 6.68 27 6 C26.85054932 6.72469482 26.70109863 7.44938965 26.54711914 8.19604492 C26.0492381 10.74765748 25.62762466 13.29209466 25.24609375 15.86328125 C25.11396484 16.74951172 24.98183594 17.63574219 24.84570312 18.54882812 C24.71099609 19.46083984 24.57628906 20.37285156 24.4375 21.3125 C24.29892578 22.24384766 24.16035156 23.17519531 24.01757812 24.13476562 C23.67727444 26.42301451 23.33811715 28.71142718 23 31 C20.60621045 27.99713974 18.86273584 24.91911269 17.125 21.5 C14.92366673 17.4288923 13.19522961 14.25896979 9 12 C6.33071879 11.58129447 6.33071879 11.58129447 4 12 C2.79245531 12.97902671 2.79245531 12.97902671 2.9453125 14.8203125 C3.3964987 20.6072659 4.67294079 24.92491813 9 29 C10.07507813 29.65613281 11.15015625 30.31226563 12.2578125 30.98828125 C19.79182091 35.59803289 19.79182091 35.59803289 22 39 C23.34802913 45.27663614 22.10724367 51.76615412 21 58 C17.87060068 54.93698521 15.34071008 51.56029044 12.71875 48.05859375 C10.98676183 45.78664546 10.98676183 45.78664546 8 44 C5.36 44 2.72 44 0 44 C0 29.48 0 14.96 0 0 Z " fill="#545D2E" transform="translate(0,353)"/>
<path d="M0 0 C11.72646711 0.92577372 21.87972616 9.30808474 29.44921875 17.72265625 C41.39700017 32.79430582 46.18945877 48.78284178 46.375 67.8125 C46.38909912 68.88677246 46.40319824 69.96104492 46.41772461 71.06787109 C46.37869718 77.41995564 45.64047704 82.20911253 43 88 C42.67 88 42.34 88 42 88 C41.87882812 86.91203125 41.75765625 85.8240625 41.6328125 84.703125 C41.19801235 80.85197506 40.73858218 77.00423766 40.26464844 73.15771484 C40.04701674 71.38333388 39.83863764 69.60782048 39.6328125 67.83203125 C36.51458968 45.27264374 25.90250157 22.68926088 7.59448242 8.6887207 C6.42880013 7.82935142 5.25209887 6.98468292 4.0637207 6.15698242 C2.66213173 5.16813915 1.32409386 4.09043024 0 3 C0 2.01 0 1.02 0 0 Z " fill="#65341A" transform="translate(227,206)"/>
<path d="M0 0 C0 11.55 0 23.1 0 35 C-5.61 35 -11.22 35 -17 35 C-20 21.5 -20 21.5 -20 17 C-18.3828125 15.4296875 -18.3828125 15.4296875 -16.125 13.875 C-11.2495783 10.32290705 -7.15296212 6.27413207 -2.96875 1.94140625 C-1 0 -1 0 0 0 Z " fill="#555D2E" transform="translate(429,394)"/>
<path d="M0 0 C3.4453125 1.9140625 3.4453125 1.9140625 6 4 C6 4.66 6 5.32 6 6 C4.205625 6.5878125 4.205625 6.5878125 2.375 7.1875 C-4.45532216 9.77456008 -7.86662009 13.3381219 -11 20 C-14.31248187 20.02888146 -17.62493167 20.04675799 -20.9375 20.0625 C-21.88302734 20.07087891 -22.82855469 20.07925781 -23.80273438 20.08789062 C-25.15141602 20.09272461 -25.15141602 20.09272461 -26.52734375 20.09765625 C-27.77632446 20.10551147 -27.77632446 20.10551147 -29.05053711 20.11352539 C-31 20 -31 20 -32 19 C-32.5631397 15.05802207 -32.04403378 13.08806756 -30.25 9.5 C-22.96762265 0.36651556 -11.04943525 -1.92926647 0 0 Z " fill="#8F5926" transform="translate(181,326)"/>
<path d="M0 0 C2.9228334 1.83100932 5.43323854 3.86647708 7 7 C9.27399754 7.60076256 11.55130576 7.9563154 13.87109375 8.33984375 C16 9 16 9 18 12 C17.625 14.6875 17.625 14.6875 17 17 C11.46411467 17.02464775 5.928261 17.04283496 0.39233398 17.05493164 C-1.4924373 17.05997244 -3.37720465 17.06680498 -5.26196289 17.07543945 C-7.96501636 17.08751617 -10.66801831 17.09323068 -13.37109375 17.09765625 C-14.21900986 17.10281754 -15.06692596 17.10797882 -15.9405365 17.11329651 C-17.96071068 17.11349195 -19.98077934 17.06206211 -22 17 C-23 16 -23 16 -23.3125 13.6875 C-23 11 -23 11 -21.4375 8.6875 C-18.185351 6.43601223 -15.86806995 6.70245616 -12 7 C-11.7525 6.401875 -11.505 5.80375 -11.25 5.1875 C-8.53872637 0.44277116 -5.37129106 -0.85940657 0 0 Z " fill="#F9E5C8" transform="translate(266,82)"/>
<path d="M0 0 C0.33 0 0.66 0 1 0 C1 7.92 1 15.84 1 24 C-6 27 -6 27 -8.3125 27.9375 C-10.50378338 29.31719694 -10.87482979 30.67275945 -12 33 C-13.53150749 35.53490895 -15.09325937 38.04933533 -16.66015625 40.5625 C-17.86948024 42.76255297 -18.54059833 44.54985778 -19 47 C-19.66 47 -20.32 47 -21 47 C-21.33772739 44.29215006 -21.67030687 41.58383004 -22 38.875 C-22.14308594 37.73417969 -22.14308594 37.73417969 -22.2890625 36.5703125 C-22.55313948 34.38224606 -22.77898947 32.19276606 -23 30 C-23.13148438 28.93394531 -23.26296875 27.86789062 -23.3984375 26.76953125 C-22.83104511 22.82559785 -20.57168059 21.19684717 -17.625 18.8125 C-16.52360924 17.86630896 -15.42602599 16.91567024 -14.33203125 15.9609375 C-13.77596191 15.4772168 -13.21989258 14.99349609 -12.64697266 14.49511719 C-10.03624961 12.12511008 -7.66660174 9.55933168 -5.3125 6.9375 C-4.50425781 6.03902344 -3.69601562 5.14054687 -2.86328125 4.21484375 C-0.97581745 2.14628356 -0.97581745 2.14628356 0 0 Z " fill="#545D2E" transform="translate(428,355)"/>
<path d="M0 0 C3.53571429 0.53571429 3.53571429 0.53571429 5 2 C5.93448401 8.86309569 4.18594801 13.98367854 1 20 C4.465 19.505 4.465 19.505 8 19 C8.66 19.99 9.32 20.98 10 22 C-2.54 22 -15.08 22 -28 22 C-28 16 -28 16 -26 14 C-22.04841529 13.65638394 -19.39464446 13.91098803 -16 16 C-16.33 15.01 -16.66 14.02 -17 13 C-17.06740865 11.43881572 -17.08514456 9.8749748 -17.0625 8.3125 C-17.05347656 7.50425781 -17.04445313 6.69601563 -17.03515625 5.86328125 C-17.02355469 5.24839844 -17.01195312 4.63351563 -17 4 C-15.68 3.34 -14.36 2.68 -13 2 C-9.63408573 4.72478774 -8.55773724 8.06856792 -7 12 C-6.66226562 11.30132812 -6.32453125 10.60265625 -5.9765625 9.8828125 C-5.53054688 8.97273437 -5.08453125 8.06265625 -4.625 7.125 C-4.18414062 6.22007812 -3.74328125 5.31515625 -3.2890625 4.3828125 C-2 2 -2 2 0 0 Z " fill="#3F4926" transform="translate(408,242)"/>
<path d="M0 0 C1.65 1.65 3.3 3.3 5 5 C9.62816375 9.42015639 14.17086434 12.34109601 20 15 C20 19.29 20 23.58 20 28 C13.4 28 6.8 28 0 28 C0 18.76 0 9.52 0 0 Z " fill="#545D2E" transform="translate(0,401)"/>
<path d="M0 0 C1.8671875 0.07421875 1.8671875 0.07421875 4 1 C5.6328125 3.58203125 5.6328125 3.58203125 7.125 6.8125 C7.62257813 7.87082031 8.12015625 8.92914063 8.6328125 10.01953125 C9.08398438 11.00308594 9.53515625 11.98664063 10 13 C10.66053546 14.33638135 11.32433975 15.6712015 12 17 C12.12117188 16.31292969 12.24234375 15.62585938 12.3671875 14.91796875 C12.53476562 14.01691406 12.70234375 13.11585938 12.875 12.1875 C13.03742187 11.29417969 13.19984375 10.40085937 13.3671875 9.48046875 C14 7 14 7 16 4 C16.99 4 17.98 4 19 4 C20.28446919 6.56893838 20.32977144 8.76576337 20.5625 11.625 C20.68818359 13.12933594 20.68818359 13.12933594 20.81640625 14.6640625 C20.87699219 15.43492187 20.93757813 16.20578125 21 17 C21.556875 16.34 22.11375 15.68 22.6875 15 C25 13 25 13 27.75 12.75 C28.4925 12.8325 29.235 12.915 30 13 C29.125 20.875 29.125 20.875 28 22 C26.21928754 22.08726223 24.4351686 22.10699041 22.65234375 22.09765625 C21.57275391 22.09443359 20.49316406 22.09121094 19.38085938 22.08789062 C18.24455078 22.07951172 17.10824219 22.07113281 15.9375 22.0625 C14.79732422 22.05798828 13.65714844 22.05347656 12.48242188 22.04882812 C9.65489649 22.03699747 6.8274736 22.0205141 4 22 C3.35004703 20.58521865 2.70521278 19.16808513 2.0625 17.75 C1.70285156 16.96109375 1.34320313 16.1721875 0.97265625 15.359375 C-1.05922502 10.43063488 -1.17330751 6.28587895 -1 1 C-0.67 0.67 -0.34 0.34 0 0 Z " fill="#465129" transform="translate(13,276)"/>
<path d="M0 0 C0 0.33 0 0.66 0 1 C-1.25103516 1.23783203 -1.25103516 1.23783203 -2.52734375 1.48046875 C-13.99072443 3.85718341 -22.62028472 7.64036111 -30 17 C-36.92221034 27.90111865 -41.05421651 38.30083 -38.3125 51.24609375 C-35.95495648 59.74307352 -32.97589233 66.91634771 -25.125 71.5 C-24.09375 71.995 -23.0625 72.49 -22 73 C-22 73.33 -22 73.66 -22 74 C-24.6494673 74.48172133 -26.40010898 74.36895347 -28.71484375 72.9453125 C-36.05597549 67.00172663 -40.3944959 59.28986339 -42 50 C-42.97141372 39.6880697 -42.10215897 31.24597592 -37 22 C-36.55398437 21.18917969 -36.10796875 20.37835938 -35.6484375 19.54296875 C-27.47541381 6.14194947 -15.68044 -1.21240515 0 0 Z " fill="#835023" transform="translate(227,257)"/>
<path d="M0 0 C0.83496015 2.81202652 1.66804276 5.62458512 2.5 8.4375 C2.85771484 9.64116211 2.85771484 9.64116211 3.22265625 10.86914062 C5 16.88671875 5 16.88671875 5 18 C1.20054461 18.54760834 -2.22299852 18.77623893 -6 18 C-8.71802012 15.37019149 -10.22878158 12.30893216 -12 9 C-14.18465172 6.55811833 -14.18465172 6.55811833 -16 5 C-10.26735905 1.05084735 -6.97077402 -0.13152404 0 0 Z " fill="#7F7F44" transform="translate(148,218)"/>
<path d="M0 0 C1.32 0 2.64 0 4 0 C4.33 2.64 4.66 5.28 5 8 C6.0828125 6.9790625 6.0828125 6.9790625 7.1875 5.9375 C10 4 10 4 12.8125 4.25 C13.534375 4.4975 14.25625 4.745 15 5 C14.125 10.875 14.125 10.875 13 12 C9.21723777 12.33509556 5.42069889 12.32493683 1.625 12.375 C0.02398437 12.43107422 0.02398437 12.43107422 -1.609375 12.48828125 C-4.4900861 12.52093415 -7.16159474 12.49632206 -10 12 C-12.24609375 9.65234375 -12.24609375 9.65234375 -13 7 C-12.6875 4.1875 -12.6875 4.1875 -12 2 C-8.31245243 2.49831724 -6.39509338 3.10067643 -4 6 C-3.13375 4.515 -3.13375 4.515 -2.25 3 C-1.5075 2.01 -0.765 1.02 0 0 Z " fill="#7A7B3F" transform="translate(381,282)"/>
<path d="M0 0 C4.0743356 0.84881992 5.54405875 2.30225596 8 5.625 C8.55878277 9.53647941 8.23182354 12.33599688 6 15.625 C2.47427193 17.97548538 1.14986355 18.28897817 -3 17.625 C-6.16041435 14.73940429 -7.76419058 12.78046616 -8.625 8.5625 C-7.56540181 3.58238848 -4.97620496 1.03670937 0 0 Z " fill="#32342B" transform="translate(136,154.375)"/>
<path d="M0 0 C0.99 0.33 1.98 0.66 3 1 C3 3.31 3 5.62 3 8 C3.66 8 4.32 8 5 8 C5.226875 7.360625 5.45375 6.72125 5.6875 6.0625 C7 4 7 4 9.625 3.25 C10.800625 3.12625 10.800625 3.12625 12 3 C11.67 5.97 11.34 8.94 11 12 C7.39625537 12.14500644 3.79325758 12.23396763 0.1875 12.3125 C-0.83666016 12.35439453 -1.86082031 12.39628906 -2.91601562 12.43945312 C-5.69257224 12.48497045 -8.26259312 12.47041044 -11 12 C-14.05375194 8.84861478 -14 7.41561993 -14 3 C-11.875 2.1875 -11.875 2.1875 -9 2 C-6.69892439 3.44423481 -4.98353614 5.10872135 -3 7 C-2.87625 6.21625 -2.7525 5.4325 -2.625 4.625 C-2 2 -2 2 0 0 Z " fill="#7A7B3F" transform="translate(120,306)"/>
<path d="M0 0 C3.83564288 0.01648557 5.0367901 0.17604566 8.375 2.3125 C10.25 4.3125 10.25 4.3125 10.1875 6.4375 C8.84644597 10.55006569 6.03645171 13.22720775 2.25 15.3125 C-1.14371199 15.03339098 -1.69621131 14.37525347 -4 11.6875 C-5.97809348 7.87260543 -6.16544125 5.55000077 -5.75 1.3125 C-4.10962605 -0.32787395 -2.25523159 0.06338669 0 0 Z " fill="#623219" transform="translate(87.75,171.6875)"/>
<path d="M0 0 C3.40320742 1.01176437 4.75725331 1.64843582 6.8125 4.625 C7.204375 5.40875 7.59625 6.1925 8 7 C9.65 5.02 11.3 3.04 13 1 C16.875 1.875 16.875 1.875 18 3 C18.28951966 6.57074246 18.20361576 9.11188234 16 12 C12.7421875 12.609375 12.7421875 12.609375 8.875 12.75 C7.59367188 12.80671875 6.31234375 12.8634375 4.9921875 12.921875 C4.00476563 12.94765625 3.01734375 12.9734375 2 13 C-0.79113021 8.73985389 -1.39490742 6.13379651 -1 1 C-0.67 0.67 -0.34 0.34 0 0 Z " fill="#7B7C40" transform="translate(248,377)"/>
<path d="M0 0 C0.33 0.33 0.66 0.66 1 1 C0.70289023 6.84315887 -0.13704627 10.38591638 -4 15 C-6.5 16.9375 -6.5 16.9375 -9 18 C-11.3125 17.6875 -11.3125 17.6875 -13 17 C-13.78252511 10.87021999 -12.01363849 7.81653794 -8.5078125 2.8203125 C-5.94465741 -0.27406645 -3.86043443 -0.197971 0 0 Z " fill="#895324" transform="translate(193,118)"/>
<path d="M0 0 C0.33 0 0.66 0 1 0 C0.67 6.6 0.34 13.2 0 20 C-2.81929286 16.47588393 -5.53670113 12.95797012 -8.1875 9.3125 C-8.88230469 8.35988281 -9.57710938 7.40726562 -10.29296875 6.42578125 C-12 4 -12 4 -13 2 C-8.48382401 1.92345464 -4.40914783 1.89771304 0 3 C0 2.01 0 1.02 0 0 Z " fill="#555D2E" transform="translate(400,353)"/>
<path d="M0 0 C0.66 0 1.32 0 2 0 C1.61672673 7.66546543 -3.42045971 12.7015308 -8.75 17.75 C-12.95658651 21.28385688 -17.64429009 23.70625835 -23 25 C-23.99 24.67 -24.98 24.34 -26 24 C-25.11957031 23.54109375 -24.23914063 23.0821875 -23.33203125 22.609375 C-22.17058594 21.99578125 -21.00914062 21.3821875 -19.8125 20.75 C-18.66394531 20.14671875 -17.51539063 19.5434375 -16.33203125 18.921875 C-11.41007747 16.08295207 -7.87869001 13.30068355 -4.8125 8.5 C-4.32394531 7.7471875 -3.83539063 6.994375 -3.33203125 6.21875 C-2.1112789 4.18535606 -1.02504798 2.13754081 0 0 Z " fill="#824F22" transform="translate(206,243)"/>
<path d="M0 0 C0.33 0 0.66 0 1 0 C1 5.61 1 11.22 1 17 C-1.64 15.02 -4.28 13.04 -7 11 C-5.5129879 6.40378078 -3.20187872 3.53027653 0 0 Z " fill="#948E4A" transform="translate(428,355)"/>
<path d="M0 0 C0.33 0 0.66 0 1 0 C1 2.31 1 4.62 1 7 C1.99 7.33 2.98 7.66 4 8 C3.39009109 11.55780196 2.4216319 14.6828589 1 18 C0.67 18 0.34 18 0 18 C0 12.06 0 6.12 0 0 Z " fill="#565D2F" transform="translate(404,350)"/>
<path d="M0 0 C-0.875 3.875 -0.875 3.875 -2 5 C-4.67058851 5.14115161 -7.32432238 5.04247107 -10 5 C-10 4.34 -10 3.68 -10 3 C-3.375 0 -3.375 0 0 0 Z " fill="#8F5A29" transform="translate(123,198)"/>
<path d="M0 0 C1.125 1.6875 1.125 1.6875 2 4 C0.96025074 7.68638375 -0.97020505 10.77078076 -3 14 C-4.44133303 11.11733394 -3.49327345 9.49238868 -2.625 6.4375 C-2.34914063 5.44621094 -2.07328125 4.45492188 -1.7890625 3.43359375 C-1 1 -1 1 0 0 Z " fill="#8A8547" transform="translate(33,349)"/>
<path d="M0 0 C0.99 0.33 1.98 0.66 3 1 C2.50628906 1.39832031 2.01257813 1.79664063 1.50390625 2.20703125 C0.86324219 2.73683594 0.22257813 3.26664062 -0.4375 3.8125 C-1.07558594 4.33457031 -1.71367187 4.85664063 -2.37109375 5.39453125 C-4.2548275 7.00834411 -4.2548275 7.00834411 -5 10 C-5.66 10 -6.32 10 -7 10 C-6.84819155 7.34335221 -6.47988575 5.54782138 -4.703125 3.51953125 C-3.125 2.125 -3.125 2.125 0 0 Z " fill="#845022" transform="translate(185,340)"/>
<path d="M0 0 C0.99 0.33 1.98 0.66 3 1 C2.50628906 1.39832031 2.01257813 1.79664063 1.50390625 2.20703125 C0.86324219 2.73683594 0.22257813 3.26664062 -0.4375 3.8125 C-1.07558594 4.33457031 -1.71367187 4.85664063 -2.37109375 5.39453125 C-4.2548275 7.00834411 -4.2548275 7.00834411 -5 10 C-5.66 10 -6.32 10 -7 10 C-6.84819155 7.34335221 -6.47988575 5.54782138 -4.703125 3.51953125 C-3.125 2.125 -3.125 2.125 0 0 Z " fill="#7C4B20" transform="translate(162,336)"/>
<path d="M0 0 C-2 3 -2 3 -5.125 3.6875 C-6.07375 3.790625 -7.0225 3.89375 -8 4 C-8 3.34 -8 2.68 -8 2 C-8.66 1.67 -9.32 1.34 -10 1 C-6.61981469 -0.04005702 -3.5219721 -0.08004482 0 0 Z " fill="#5D6432" transform="translate(65,370)"/>
<path d="M0 0 C2 1 2 1 2.8515625 3.50390625 C3.10679687 4.51324219 3.36203125 5.52257812 3.625 6.5625 C3.88539063 7.57441406 4.14578125 8.58632812 4.4140625 9.62890625 C4.60742188 10.41136719 4.80078125 11.19382813 5 12 C1.91019927 10.45509963 1.31632597 8.11131592 0 5 C-0.1875 2.125 -0.1875 2.125 0 0 Z " fill="#7C743D" transform="translate(278,219)"/>
</svg>
