<?xml version="1.0" encoding="UTF-8"?>
<svg version="1.1" xmlns="http://www.w3.org/2000/svg" width="429" height="429">
<path d="M0 0 C141.57 0 283.14 0 429 0 C429 141.57 429 283.14 429 429 C287.43 429 145.86 429 0 429 C0 287.43 0 145.86 0 0 Z " fill="#192735" transform="translate(0,0)"/>
<path d="M0 0 C4.21808229 3.45381012 8.14735057 7.14735057 12 11 C14.417409 11.15087589 16.71878358 11.18336822 19.1328125 11.125 C19.8434787 11.11742676 20.5541449 11.10985352 21.28634644 11.10205078 C24.32692834 11.06941767 27.36697249 11.01362309 30.40722656 10.95898438 C32.62822914 10.92246421 34.84913952 10.89848036 37.0703125 10.875 C37.74458282 10.85840332 38.41885315 10.84180664 39.11355591 10.82470703 C47.34688502 10.74148955 57.36087029 12.80164271 63.64453125 18.48828125 C67.15636173 22.56686247 68.47374324 26.22602699 68.4140625 31.6171875 C65.62718728 47.65486566 49.2819512 57.80580154 37.03540039 66.46191406 C36.48231201 66.85088867 35.92922363 67.23986328 35.359375 67.640625 C34.8128125 68.02951904 34.26625 68.41841309 33.703125 68.8190918 C32.52366573 69.63690207 31.32384809 70.42582552 30.109375 71.19067383 C25.78120656 74.00567401 24.0398812 76.08974813 22.5 81.1875 C17.22293202 96.32076913 5.66951105 108.01566787 -8.42578125 115.34375 C-13.79790341 117.83312683 -19.25347379 119.60091453 -25 121 C-26.17175781 121.28810547 -26.17175781 121.28810547 -27.3671875 121.58203125 C-37.95595832 123.26303789 -48.87267883 122.40992172 -59 119 C-59.87140625 118.70996094 -60.7428125 118.41992188 -61.640625 118.12109375 C-65.9756521 116.53202707 -69.32366274 114.79151349 -72.8984375 111.87109375 C-79.07695124 107.68946954 -85.24459538 108.50903729 -92.4375 108.875 C-108.82132392 109.36416235 -125.91908086 108.6107851 -139 97.4375 C-142.59104054 93.06091935 -143.41616883 89.87013323 -143.234375 84.2890625 C-142.2063817 74.24899459 -133.62783404 67.01939774 -126.3125 60.875 C-110.92346939 49 -110.92346939 49 -105 49 C-104.91363281 48.18917969 -104.82726562 47.37835938 -104.73828125 46.54296875 C-103.72325732 38.54383521 -101.81494448 32.09093558 -98 25 C-97.54496094 24.14535156 -97.08992188 23.29070312 -96.62109375 22.41015625 C-88.61297643 8.24866267 -76.3418819 -2.41914424 -61 -8 C-60.14792969 -8.31839844 -59.29585938 -8.63679687 -58.41796875 -8.96484375 C-39.04870127 -14.97790676 -16.64166511 -11.45232868 0 0 Z " fill="#B46B22" transform="translate(251,151)"/>
<path d="M0 0 C3.53551737 2.81503348 6.80264499 5.80830403 10 9 C10.55300781 9.54140625 11.10601562 10.0828125 11.67578125 10.640625 C15.19371456 14.39561581 17.8115789 18.72439295 20.4375 23.125 C20.80439941 23.7233667 21.17129883 24.3217334 21.54931641 24.93823242 C23.07875922 27.6008836 24.00891509 29.53710128 23.94921875 32.63671875 C19.72417323 43.15586502 8.22034838 49.35669667 -1 55 C-2.05574219 55.66644531 -3.11148438 56.33289063 -4.19921875 57.01953125 C-30.98766648 73.19804027 -66.13217046 87.89940706 -98 86 C-98.79675015 84.14801206 -99.58714361 82.2932889 -100.375 80.4375 C-100.81585938 79.40496094 -101.25671875 78.37242187 -101.7109375 77.30859375 C-104.27301868 70.7325854 -105.30258999 65.171645 -105.1875 58.1875 C-105.18685547 57.42501953 -105.18621094 56.66253906 -105.18554688 55.87695312 C-105.1410251 50.2820502 -105.1410251 50.2820502 -104 48 C-103.89532881 46.18860699 -103.81602077 44.37571316 -103.75 42.5625 C-103.23001778 35.86672895 -101.18495645 30.85343348 -98 25 C-97.54367188 24.1440625 -97.08734375 23.288125 -96.6171875 22.40625 C-88.61840088 8.24446386 -76.33539193 -2.42150507 -61 -8 C-60.14792969 -8.31839844 -59.29585937 -8.63679687 -58.41796875 -8.96484375 C-39.01273718 -14.98907158 -16.68373089 -11.42332733 0 0 Z " fill="#C17425" transform="translate(251,151)"/>
<path d="M0 0 C5.69097752 3.49219075 9.90017651 9.70052954 12 16 C13.29260805 34.50276088 13.29260805 34.50276088 8.67578125 41.109375 C1.15781647 49.59118141 -5.4081687 53.86457868 -16.8125 54.5625 C-24.52351792 54.34584305 -31.0739226 51.31114961 -36.9453125 46.359375 C-38.52810604 44.65727541 -39.76857228 42.96946883 -41 41 C-41.40992188 40.36707031 -41.81984375 39.73414063 -42.2421875 39.08203125 C-46.002491 32.17085274 -45.93236147 24.66335697 -45 17 C-42.49306842 8.64725893 -36.84958939 2.13805782 -29.5 -2.4375 C-20.2132624 -6.61111165 -8.64577473 -4.82750457 0 0 Z " fill="#DAA750" transform="translate(89,35)"/>
<path d="M0 0 C3.49971199 -0.1173794 6.99890955 -0.18763961 10.5 -0.25 C11.48226562 -0.28351563 12.46453125 -0.31703125 13.4765625 -0.3515625 C19.89782354 -0.43717931 24.64565737 0.31167906 30 4 C32 6 32 6 32.375 9.25 C31.52574142 17.74258575 23.99932027 23.52073786 17.8671875 28.85546875 C12.29885262 33.37599868 6.37831552 36.75503198 0 40 C-0.58136719 40.30019043 -1.16273438 40.60038086 -1.76171875 40.90966797 C-29.92204594 55.43998355 -58.4528257 65.44287208 -89.625 71.25 C-90.9389978 71.49508301 -90.9389978 71.49508301 -92.27954102 71.74511719 C-107.31045102 74.42171777 -126.40098048 77.50965381 -140.296875 69.7109375 C-143.69927582 67.16594169 -144.8536783 65.74491046 -145.6875 61.5 C-143.95707966 52.69058735 -136.31179864 46.43038894 -129.1875 41.5625 C-125.3002611 39 -125.3002611 39 -123 39 C-122.90203125 39.72703125 -122.8040625 40.4540625 -122.703125 41.203125 C-121.70932951 47.88554295 -120.16909876 54.04222839 -117.90234375 60.40625 C-117.14055438 62.59598223 -116.51649311 64.7423394 -116 67 C-76.43203811 65.68980259 -26.14722976 48.03475502 2 19 C4.61425678 16.0312405 4.61425678 16.0312405 4.9375 12.1875 C3.80284726 8.32968068 2.05731385 5.45097806 0 2 C0 1.34 0 0.68 0 0 Z " fill="#9A591C" transform="translate(269,170)"/>
<path d="M0 0 C-1 3 -1 3 -3.00390625 4.0703125 C-3.84824219 4.41835938 -4.69257813 4.76640625 -5.5625 5.125 C-12.66189515 8.50178967 -16.87683206 13.61620109 -21 20.1875 C-23.53555153 29.85429021 -22.81594489 39.2239053 -18 48 C-13.87631706 54.7200759 -6.47583609 58.96532047 1 61 C3.45140859 61.27821125 5.91179765 61.48557345 8.375 61.625 C9.62023437 61.69976562 10.86546875 61.77453125 12.1484375 61.8515625 C13.08945312 61.90054688 14.03046875 61.94953125 15 62 C12.61157506 65.21825632 10.73381197 67.52268724 7.0625 69.1875 C6.08990234 69.64189453 6.08990234 69.64189453 5.09765625 70.10546875 C4.40542969 70.40066406 3.71320313 70.69585937 3 71 C2.2678125 71.35707031 1.535625 71.71414062 0.78125 72.08203125 C-7.82088399 74.92121873 -18.68643519 74.24816714 -26.75 70.3125 C-28.53037403 69.25800849 -30.28602116 68.15929313 -32 67 C-32.61101562 66.60554688 -33.22203125 66.21109375 -33.8515625 65.8046875 C-40.87026654 60.65763787 -45.94426932 51.3274514 -48 43 C-49.25437564 30.75221984 -47.28130252 21.09823765 -39.87109375 11.25390625 C-29.86216612 -0.80277693 -14.94165833 -5.55294466 0 0 Z " fill="#E5BD6F" transform="translate(362,27)"/>
<path d="M0 0 C4.28932836 2.72957259 5.1562773 6.92828676 6.484375 11.5625 C7 14 7 14 7 18 C6.29617188 18.06316406 5.59234375 18.12632812 4.8671875 18.19140625 C-7.45932405 19.72015116 -17.5595806 25.13488133 -26.81640625 33.30078125 C-31.87350484 37.23609053 -36.81848823 37.66333486 -43 37 C-44.78113217 36.53802719 -46.55221643 36.03595936 -48.3125 35.5 C-55.3473324 33.3994585 -62.88833271 32.91525592 -70 35 C-71.85800334 31.51624373 -72.11283285 28.67402525 -72.0625 24.8046875 C-72.05347656 23.90476074 -72.04445313 23.00483398 -72.03515625 22.07763672 C-72.01775391 21.04920654 -72.01775391 21.04920654 -72 20 C-70.98800537 20.0314209 -70.98800537 20.0314209 -69.95556641 20.06347656 C-66.84553433 20.14754586 -63.73574241 20.19894444 -60.625 20.25 C-59.56410156 20.28351563 -58.50320313 20.31703125 -57.41015625 20.3515625 C-48.84780569 20.45662202 -42.04038289 19.09818112 -35.15234375 13.81640625 C-34.42144531 13.07261719 -33.69054687 12.32882812 -32.9375 11.5625 C-24.70331519 3.82542542 -18.60786813 1.4617944 -7.35546875 1.140625 C-4.14305243 1.12289585 -4.14305243 1.12289585 -1.6796875 0.40234375 C-1.12539063 0.26957031 -0.57109375 0.13679688 0 0 Z " fill="#2C495F" transform="translate(387,320)"/>
<path d="M0 0 C0.92327685 7.01690404 -2.6591692 12.63728367 -6.5390625 18.2109375 C-12.93095077 26.11749124 -21.96395632 31.34540902 -32 33 C-43.63243362 34.08601559 -53.74280596 33.09031991 -63.18359375 25.546875 C-65.96423949 23.17764467 -68.61177759 20.77372288 -71 18 C-71 17.01 -71 16.02 -71 15 C-64.42330254 13.50639105 -56.49214224 12.45084296 -50.25 15.5 C-44.07631865 18.34939139 -38.4735833 17.30028251 -32.30078125 15.05078125 C-27.15738383 12.70175934 -22.68074254 9.36804625 -18.3125 5.8125 C-12.6181697 1.34937625 -7.12954552 -0.2037013 0 0 Z " fill="#2C495F" transform="translate(393,348)"/>
<path d="M0 0 C4.98136385 0.54244913 8.90261007 2.18621039 13.25 4.5625 C13.90677734 4.91747559 14.56355469 5.27245117 15.24023438 5.63818359 C21.00854676 8.84295852 26.03371156 12.65788989 31 17 C31.65613281 17.53625 32.31226563 18.0725 32.98828125 18.625 C36.8140791 21.77083806 40.02365744 25.03154326 43 29 C43 29.66 43 30.32 43 31 C43.66 31 44.32 31 45 31 C45.66 29.35 46.32 27.7 47 26 C47.99 26.33 48.98 26.66 50 27 C50.2475 27.94875 50.495 28.8975 50.75 29.875 C51.64895347 33.00768417 51.64895347 33.00768417 53.6796875 34.0625 C55.42125761 34.78990278 57.20947965 35.40315988 59 36 C59 36.66 59 37.32 59 38 C55.53846154 41 55.53846154 41 53 41 C53.2475 41.7734375 53.2475 41.7734375 53.5 42.5625 C54.15049 45.73363876 54.0620734 48.77218334 54 52 C51.11562221 50.70700306 49.12780579 49.34058637 47 47 C46.278125 47.309375 45.55625 47.61875 44.8125 47.9375 C42.19692691 48.92560539 39.74881018 49.5287754 37 50 C37.53771481 46.62007831 38.14303932 43.31262111 39 40 C26.60526536 31.68608708 12.70748675 26.9290436 -1.57568359 22.953125 C-2.38473145 22.72496094 -3.1937793 22.49679687 -4.02734375 22.26171875 C-4.74656006 22.06537842 -5.46577637 21.86903809 -6.20678711 21.66674805 C-8 21 -8 21 -10 19 C-9.625 16.875 -9.625 16.875 -9 15 C-0.65474478 14.48082514 6.91038514 16.04170706 15 18 C11.58190772 13.4106733 7.74166764 10.40097679 3.14453125 7.0625 C0.68755675 4.69950813 0.29581037 3.34091707 0 0 Z " fill="#C79545" transform="translate(69,305)"/>
<path d="M0 0 C2.21875 1.31640625 2.21875 1.31640625 5.40625 3.69140625 C5.40625 4.35140625 5.40625 5.01140625 5.40625 5.69140625 C4.67921875 5.70558594 3.9521875 5.71976562 3.203125 5.734375 C-9.74413728 6.34854001 -17.74609868 10.48949691 -27.015625 19.375 C-33.35158057 25.06776008 -39.31833256 26.24410901 -47.70703125 25.96484375 C-51.52126548 25.60354957 -54.93468538 24.81727229 -58.59375 23.69140625 C-56.21581968 14.11174411 -51.03763536 6.66262925 -42.875 1.04296875 C-28.65286072 -7.38316172 -14.80607979 -7.46993484 0 0 Z " fill="#2C495F" transform="translate(374.59375,306.30859375)"/>
<path d="M0 0 C-0.26106973 3.63539598 -0.91526125 4.91056844 -3.46875 7.60546875 C-4.4690625 8.45753906 -5.469375 9.30960938 -6.5 10.1875 C-10.26546184 13.18326331 -10.26546184 13.18326331 -13 17 C-8.71 17 -4.42 17 0 17 C0.495 18.98 0.495 18.98 1 21 C-3.99279418 22.6677501 -8.98825058 24.32672306 -13.98828125 25.97265625 C-16.09636768 26.66922993 -18.2044404 27.36584511 -20.3125 28.0625 C-21.91834961 28.5894043 -21.91834961 28.5894043 -23.55664062 29.12695312 C-24.58595703 29.46791016 -25.61527344 29.80886719 -26.67578125 30.16015625 C-27.60302002 30.46574463 -28.53025879 30.77133301 -29.4855957 31.08618164 C-32.3017144 32.05518866 -32.3017144 32.05518866 -36 34 C-35.67 37.63 -35.34 41.26 -35 45 C-40 44 -40 44 -42 42 C-44.95662966 42.22743305 -46.55033688 42.61235938 -48.8125 44.5625 C-49.204375 45.036875 -49.59625 45.51125 -50 46 C-50.99 45.67 -51.98 45.34 -53 45 C-52.86980469 44.39671875 -52.73960937 43.7934375 -52.60546875 43.171875 C-52.18047711 40.7093066 -51.87893702 38.49908587 -52 36 C-54.32069965 33.57583999 -54.32069965 33.57583999 -57 32 C-57 31.01 -57 30.02 -57 29 C-55.741875 28.649375 -54.48375 28.29875 -53.1875 27.9375 C-50.65628409 27.0146142 -49.33240554 26.48723939 -47.80078125 24.2421875 C-46.87959475 22.11319905 -46.87959475 22.11319905 -46 19 C-45.01 19.33 -44.02 19.66 -43 20 C-42.3125 22.0625 -42.3125 22.0625 -42 24 C-40.67548828 22.93072266 -40.67548828 22.93072266 -39.32421875 21.83984375 C-11.02937923 -0.82219009 -11.02937923 -0.82219009 0 0 Z " fill="#C18E3F" transform="translate(348,235)"/>
<path d="M0 0 C1.85625 0.0309375 1.85625 0.0309375 3.75 0.0625 C3.75 4.3525 3.75 8.6425 3.75 13.0625 C3.255 11.5775 3.255 11.5775 2.75 10.0625 C-5.83645105 11.55465765 -11.65628478 13.4107441 -18.25 19.0625 C-26.31394685 25.07776846 -33.99999558 29.05443591 -44.25 28.0625 C-45.82587891 27.31419922 -45.82587891 27.31419922 -47.43359375 26.55078125 C-51.69207701 24.6439977 -55.58931347 24.7213331 -60.1875 24.875 C-60.96673828 24.88853516 -61.74597656 24.90207031 -62.54882812 24.91601562 C-64.44952404 24.95099776 -66.34985834 25.00479041 -68.25 25.0625 C-68.58 25.7225 -68.91 26.3825 -69.25 27.0625 C-69.94965443 25.79831754 -70.63434763 24.52584598 -71.3125 23.25 C-71.69535156 22.54230469 -72.07820313 21.83460938 -72.47265625 21.10546875 C-73.25 19.0625 -73.25 19.0625 -72.25 16.0625 C-64.42911518 13.45553839 -56.52067091 15.07362396 -48.84375 17.37890625 C-42.44237777 19.06601489 -37.13530317 18.6854401 -31.3359375 15.46484375 C-28.90017679 13.82731923 -26.690921 12.00522036 -24.4375 10.125 C-17.5385161 4.40961303 -9.15178574 -0.15252976 0 0 Z " fill="#1F3849" transform="translate(390.25,337.9375)"/>
<path d="M0 0 C0.639375 0.928125 1.27875 1.85625 1.9375 2.8125 C2.535625 3.575625 3.13375 4.33875 3.75 5.125 C4.3378125 5.9603125 4.3378125 5.9603125 4.9375 6.8125 C0.76663616 8.81451464 -2.65488504 9.00535867 -7.25 9.0625 C-16.99176824 9.4781772 -22.6053221 13.45302234 -29.5625 19.9375 C-39.62888514 28.99724663 -50.03854234 28.31577261 -62.95288086 27.98950195 C-65.0625 27.8125 -65.0625 27.8125 -68.0625 26.8125 C-68.0625 28.4625 -68.0625 30.1125 -68.0625 31.8125 C-68.3925 31.8125 -68.7225 31.8125 -69.0625 31.8125 C-68.7325 27.1925 -68.4025 22.5725 -68.0625 17.8125 C-64.07473536 16.81555884 -62.87537852 16.9620226 -59.0625 17.8125 C-51.31655733 18.4724197 -44.67362905 18.19848251 -38.0625 13.8125 C-36.25903865 12.15732325 -34.60689846 10.41792507 -32.9453125 8.62109375 C-25.40936173 1.38220328 -16.05139911 -1.61883521 -5.84375 -2.3515625 C-3.0625 -2.1875 -3.0625 -2.1875 0 0 Z " fill="#1E3749" transform="translate(383.0625,313.1875)"/>
<path d="M0 0 C-0.4979837 3.73487777 -0.87491756 5.81237635 -3 9 C-4.6419127 9.72549631 -6.31514429 10.38073958 -8 11 C-10.36355454 12.17194084 -12.71447116 13.36045248 -15.0625 14.5625 C-38.68167111 26.42554741 -66.79709551 39.98931725 -94 39 C-97.58847579 37.79431026 -99.16959644 36.58428151 -102 34 C-101.67 33.34 -101.34 32.68 -101 32 C-99.171875 31.60864258 -99.171875 31.60864258 -96.75 31.39453125 C-95.84435303 31.30212158 -94.93870605 31.20971191 -94.00561523 31.11450195 C-93.01376221 31.01484131 -92.02190918 30.91518066 -91 30.8125 C-61.81331859 27.41337665 -30.3885607 16.60213371 -4.99609375 1.703125 C-2 0 -2 0 0 0 Z " fill="#99591C" transform="translate(275,226)"/>
<path d="M0 0 C0.14695313 1.09054688 0.14695313 1.09054688 0.296875 2.203125 C2.00587387 13.69466912 5.48640689 23.78629472 11 34 C7.85449187 34.11792821 4.70956459 34.18781383 1.5625 34.25 C0.24475586 34.30027344 0.24475586 34.30027344 -1.09960938 34.3515625 C-8.68397175 34.46350881 -14.37281076 32.56557288 -20.5625 28.1875 C-22.69801983 24.93779592 -22.52578419 22.81193535 -22 19 C-18.50830217 12.29594016 -8.29681505 0 0 0 Z " fill="#1A2735" transform="translate(146,209)"/>
<path d="M0 0 C3.49971199 -0.1173794 6.99890955 -0.18763961 10.5 -0.25 C11.48226563 -0.28351563 12.46453125 -0.31703125 13.4765625 -0.3515625 C19.89782354 -0.43717931 24.64565737 0.31167906 30 4 C32 6 32 6 32.375 9.25 C31.53144606 17.68553942 24.01285201 23.67707693 17.7734375 28.84375 C12.38207547 33 12.38207547 33 10 33 C9.84144531 31.98421875 9.68289063 30.9684375 9.51953125 29.921875 C8.04130963 21.01235853 5.82240838 13.23773159 2 5 C1.3234599 3.33731671 0.65366252 1.67180966 0 0 Z " fill="#1A2735" transform="translate(269,170)"/>
<path d="M0 0 C1.32 0.33 2.64 0.66 4 1 C4.99 4.96 5.98 8.92 7 13 C11.29 13 15.58 13 20 13 C18.193388 16.61322401 17.33581029 17.83748791 14.375 20.25 C13.74335937 20.77078125 13.11171875 21.2915625 12.4609375 21.828125 C11.97882813 22.21484375 11.49671875 22.6015625 11 23 C11.22816406 23.74765625 11.45632812 24.4953125 11.69140625 25.265625 C11.97886719 26.25046875 12.26632813 27.2353125 12.5625 28.25 C12.85253906 29.22453125 13.14257812 30.1990625 13.44140625 31.203125 C13.99249836 33.96243932 13.93789609 35.3912824 13 38 C9.12809204 35.84066671 5.51362428 33.71295326 2 31 C0.95199219 31.75796875 0.95199219 31.75796875 -0.1171875 32.53125 C-1.48230469 33.50578125 -1.48230469 33.50578125 -2.875 34.5 C-4.23238281 35.47453125 -4.23238281 35.47453125 -5.6171875 36.46875 C-8 38 -8 38 -10 38 C-9.855625 37.01 -9.71125 36.02 -9.5625 35 C-9.48386719 34.35933594 -9.40523437 33.71867187 -9.32421875 33.05859375 C-9 31 -9 31 -8.39453125 29.03515625 C-7.7922181 26.74817773 -7.53654396 25.33493568 -8 23 C-10.66050417 19.86842064 -13.69355411 17.42343792 -17 15 C-16.67 14.34 -16.34 13.68 -16 13 C-11.71 13 -7.42 13 -3 13 C-2.690625 11.411875 -2.38125 9.82375 -2.0625 8.1875 C-1.51076205 5.35524518 -0.91407022 2.74221066 0 0 Z " fill="#D5A148" transform="translate(69,147)"/>
<path d="M0 0 C2 1 2 1 2.8515625 3.06640625 C3.56770833 5.37760417 4.28385417 7.68880208 5 10 C8.3 10.33 11.6 10.66 15 11 C13.953173 15.18730802 13.1823078 16.29986005 10 19 C9.34 19 8.68 19 8 19 C8.33 20.216875 8.66 21.43375 9 22.6875 C9.80322213 25.87210604 10.20641973 28.6972843 10 32 C7.25648576 31.00928652 5.21135401 30.18493476 3 28.25 C2.34 27.8375 1.68 27.425 1 27 C-2.58635311 27.87472027 -4.50172394 29.38275842 -7 32 C-7.66 32 -8.32 32 -9 32 C-8.85820312 31.11957031 -8.71640625 30.23914063 -8.5703125 29.33203125 C-7.42169075 22.96954982 -7.42169075 22.96954982 -9.26953125 17.12890625 C-11.11927214 15.69697106 -11.11927214 15.69697106 -14 14 C-14 13.01 -14 12.02 -14 11 C-10.37 11 -6.74 11 -3 11 C-2.87625 9.741875 -2.7525 8.48375 -2.625 7.1875 C-2.30131941 3.89674737 -1.93395001 2.90092502 0 0 Z " fill="#CE9A42" transform="translate(375,189)"/>
<path d="M0 0 C0.66 0 1.32 0 2 0 C2.99 3.3 3.98 6.6 5 10 C8.3 10.33 11.6 10.66 15 11 C13.953173 15.18730802 13.1823078 16.29986005 10 19 C9.34 19 8.68 19 8 19 C8.33 20.03125 8.66 21.0625 9 22.125 C9.9715192 25.48426709 10.17116771 28.49106202 10 32 C6.54074837 30.7508258 3.85306797 29.32472205 1 27 C-1.25162472 28.04539719 -3.14589161 29.11156417 -5.125 30.625 C-7 32 -7 32 -9 32 C-8.0625 23.96428571 -8.0625 23.96428571 -7 20 C-7.5053125 19.59007812 -8.010625 19.18015625 -8.53125 18.7578125 C-9.1809375 18.21898437 -9.830625 17.68015625 -10.5 17.125 C-11.1496875 16.59132813 -11.799375 16.05765625 -12.46875 15.5078125 C-13.22671875 14.76144531 -13.22671875 14.76144531 -14 14 C-14 13.34 -14 12.68 -14 12 C-8.555 11.505 -8.555 11.505 -3 11 C-2.690625 9.370625 -2.38125 7.74125 -2.0625 6.0625 C-1.125 1.125 -1.125 1.125 0 0 Z " fill="#CF9B41" transform="translate(35,262)"/>
<path d="M0 0 C0.99 0 1.98 0 3 0 C3.99 2.97 4.98 5.94 6 9 C8.97 9.33 11.94 9.66 15 10 C15 11.32 15 12.64 15 14 C14.154375 14.495 13.30875 14.99 12.4375 15.5 C9.68157015 17.76739207 9.68157015 17.76739207 9.890625 20.921875 C10.16261448 23.97102024 10.51993145 26.97699407 11 30 C7.64405806 28.7367158 5.36709704 27.74084921 3 25 C-0.48249231 26.25756667 -3.06465849 27.7731892 -6 30 C-6.66 30 -7.32 30 -8 30 C-7 21.42857143 -7 21.42857143 -6 18 C-6.99 17.236875 -7.98 16.47375 -9 15.6875 C-10.6875 14.38671875 -10.6875 14.38671875 -12 13 C-12 12.01 -12 11.02 -12 10 C-7.545 9.505 -7.545 9.505 -3 9 C-2.01 6.03 -1.02 3.06 0 0 Z " fill="#D59C3B" transform="translate(395,108)"/>
<path d="M0 0 C0.66 0 1.32 0 2 0 C2.18433594 0.69867188 2.36867187 1.39734375 2.55859375 2.1171875 C3.4793811 5.00641358 4.3791689 7.43049348 6 10 C8.95939954 11.44659117 11.72786868 11.84618186 15 12 C13.92237338 14.60426433 13.26113369 15.82988188 10.859375 17.39453125 C10.24578125 17.92433594 9.6321875 18.45414063 9 19 C8.73314692 21.75483302 8.73314692 21.75483302 9.25 24.6875 C9.44335938 26.17830078 9.44335938 26.17830078 9.640625 27.69921875 C9.75921875 28.45847656 9.8778125 29.21773437 10 30 C7.08482708 28.92598892 5.22189824 28.22189824 3 26 C-0.50495432 26.36258148 -3.03832492 28.20740719 -6 30 C-6.66 30 -7.32 30 -8 30 C-7.85820312 29.26394531 -7.71640625 28.52789062 -7.5703125 27.76953125 C-6.49291764 22.21892003 -6.49291764 22.21892003 -8.26953125 17.15625 C-10.09215893 15.62222636 -10.09215893 15.62222636 -13 14 C-12.67 13.34 -12.34 12.68 -12 12 C-10.55222312 11.60488958 -9.09114933 11.25777534 -7.625 10.9375 C-4.57228605 10.01537655 -3.34903831 9.60730505 -1.73828125 6.8046875 C-1.01143391 4.54259674 -0.42613864 2.33641531 0 0 Z " fill="#DDAA49" transform="translate(167,64)"/>
<path d="M0 0 C0.99 0.33 1.98 0.66 3 1 C3.391875 1.99 3.78375 2.98 4.1875 4 C5.62040028 7.11957741 5.62040028 7.11957741 7.96875 7.6171875 C9.96974897 7.84969794 11.98661967 7.93398753 14 8 C14.33 9.32 14.66 10.64 15 12 C13.35 12.99 11.7 13.98 10 15 C10.33 18.63 10.66 22.26 11 26 C6 25 6 25 4 23 C1.04337034 23.22743305 -0.55033688 23.61235938 -2.8125 25.5625 C-3.204375 26.036875 -3.59625 26.51125 -4 27 C-4.99 26.67 -5.98 26.34 -7 26 C-6.86980469 25.39671875 -6.73960937 24.7934375 -6.60546875 24.171875 C-6.18047711 21.7093066 -5.87893702 19.49908587 -6 17 C-8.32069965 14.57583999 -8.32069965 14.57583999 -11 13 C-11 12.01 -11 11.02 -11 10 C-9.741875 9.649375 -8.48375 9.29875 -7.1875 8.9375 C-4.65628409 8.0146142 -3.33240554 7.48723939 -1.80078125 5.2421875 C-0.87959475 3.11319905 -0.87959475 3.11319905 0 0 Z " fill="#DDA23C" transform="translate(302,254)"/>
<path d="M0 0 C0.66 0 1.32 0 2 0 C2.99 3.63 3.98 7.26 5 11 C7.31 11 9.62 11 12 11 C11.6875 12.875 11.6875 12.875 11 15 C10.01 15.66 9.02 16.32 8 17 C8.33 20.63 8.66 24.26 9 28 C5.34167128 27.08541782 3.12298174 25.99523834 0 24 C-1.1446875 24.99 -1.1446875 24.99 -2.3125 26 C-5 28 -5 28 -8 28 C-7.44894091 24.0507432 -6.61064629 20.65079826 -5 17 C-5.8971875 16.566875 -5.8971875 16.566875 -6.8125 16.125 C-9 15 -9 15 -12 13 C-12 12.34 -12 11.68 -12 11 C-11.38511719 10.96003906 -10.77023438 10.92007812 -10.13671875 10.87890625 C-7.48805972 10.53673499 -5.42104609 10.14613352 -3 9 C-1.30201655 6.13334276 -0.58419961 3.26345988 0 0 Z " fill="#DDA33B" transform="translate(233,319)"/>
<path d="M0 0 C0.99 0.33 1.98 0.66 3 1 C3.2475 1.94875 3.495 2.8975 3.75 3.875 C4.64895347 7.00768417 4.64895347 7.00768417 6.6796875 8.0625 C8.42125761 8.78990278 10.20947965 9.40315988 12 10 C12 10.66 12 11.32 12 12 C8.53846154 15 8.53846154 15 6 15 C6.2475 15.7734375 6.2475 15.7734375 6.5 16.5625 C7.15049 19.73363876 7.0620734 22.77218334 7 26 C4.11562221 24.70700306 2.12780579 23.34058637 0 21 C-1.0828125 21.4640625 -1.0828125 21.4640625 -2.1875 21.9375 C-4.80307309 22.92560539 -7.25118982 23.5287754 -10 24 C-9.46274105 20.62294375 -8.88935377 17.303314 -8 14 C-9.32 13.01 -10.64 12.02 -12 11 C-11.67 10.01 -11.34 9.02 -11 8 C-8.36 7.67 -5.72 7.34 -3 7 C-2.690625 6.030625 -2.38125 5.06125 -2.0625 4.0625 C-1 1 -1 1 0 0 Z " fill="#DEA23B" transform="translate(116,331)"/>
<path d="M0 0 C0.66 0 1.32 0 2 0 C2.18175781 0.68707031 2.36351562 1.37414062 2.55078125 2.08203125 C2.92783203 3.43361328 2.92783203 3.43361328 3.3125 4.8125 C3.67794922 6.15248047 3.67794922 6.15248047 4.05078125 7.51953125 C5.04548148 10.11885078 5.81154359 11.31657199 8 13 C10.30988315 13.74386068 12.64315944 14.42190703 15 15 C14.67 15.99 14.34 16.98 14 18 C12.88625 18.45375 11.7725 18.9075 10.625 19.375 C6.5856216 21.18575583 5.71632219 22.02535913 4 26 C3.27833809 28.31691454 2.59940471 30.64848923 2 33 C1.34 33 0.68 33 0 33 C-0.18175781 32.31292969 -0.36351562 31.62585938 -0.55078125 30.91796875 C-0.92783203 29.56638672 -0.92783203 29.56638672 -1.3125 28.1875 C-1.55613281 27.29417969 -1.79976562 26.40085937 -2.05078125 25.48046875 C-3.30977017 22.19051827 -4.71769606 20.66723738 -7.82421875 19.05078125 C-8.43910156 18.80714844 -9.05398437 18.56351562 -9.6875 18.3125 C-11.3271875 17.6628125 -11.3271875 17.6628125 -13 17 C-13 16.34 -13 15.68 -13 15 C-11.7625 14.62875 -10.525 14.2575 -9.25 13.875 C-4.87432746 12.22541017 -3.09196977 10.26761834 -1 6 C-0.20929452 2.76961158 -0.20929452 2.76961158 0 0 Z " fill="#D79E39" transform="translate(49,344)"/>
<path d="M0 0 C0.66 0 1.32 0 2 0 C2.66 3.3 3.32 6.6 4 10 C6.97 10 9.94 10 13 10 C12 13 12 13 9.921875 14.36328125 C9.28765625 14.90339844 8.6534375 15.44351562 8 16 C7.73274904 18.52653421 7.73274904 18.52653421 8.25 21.1875 C8.37890625 22.08855469 8.5078125 22.98960937 8.640625 23.91796875 C8.75921875 24.60503906 8.8778125 25.29210937 9 26 C6.03824877 25.38722388 4.61941217 24.74627478 2 23 C-1.17535043 23.42338006 -4.05512526 24.77296886 -7 26 C-6.86980469 25.40832031 -6.73960937 24.81664062 -6.60546875 24.20703125 C-6.17288091 21.72874767 -5.88177962 19.51640525 -6 17 C-8.29199403 14.03949126 -8.29199403 14.03949126 -11 12 C-11 11.34 -11 10.68 -11 10 C-8.36 9.67 -5.72 9.34 -3 9 C-2.01 6.03 -1.02 3.06 0 0 Z " fill="#DBA03B" transform="translate(151,372)"/>
<path d="M0 0 C2 3 2 3 3.1875 6.4375 C5.51549292 11.01321023 7.44771243 11.85269454 12 14 C8 17 8 17 5.875 18.125 C2.88295091 21.11704909 2.64936262 24.92439515 2 29 C1.34 29 0.68 29 0 29 C-0.17015625 28.38511719 -0.3403125 27.77023437 -0.515625 27.13671875 C-1.92844169 22.15085707 -1.92844169 22.15085707 -4.9375 18.0625 C-5.9584375 17.5365625 -5.9584375 17.5365625 -7 17 C-7.7425 16.608125 -8.485 16.21625 -9.25 15.8125 C-9.8275 15.544375 -10.405 15.27625 -11 15 C-11 14.34 -11 13.68 -11 13 C-9.906875 12.649375 -8.81375 12.29875 -7.6875 11.9375 C-4.28923714 10.5026779 -4.01278561 10.02386647 -2.125 6.5 C-1.75375 5.345 -1.3825 4.19 -1 3 C-0.67 2.01 -0.34 1.02 0 0 Z " fill="#DDA33A" transform="translate(286,368)"/>
<path d="M0 0 C0.66 0 1.32 0 2 0 C2.20753906 0.68707031 2.41507813 1.37414062 2.62890625 2.08203125 C4.26388703 7.35073262 4.26388703 7.35073262 7.82421875 11.33203125 C9.93352915 12.2483444 9.93352915 12.2483444 13 13 C13 13.66 13 14.32 13 15 C11.3603125 15.556875 11.3603125 15.556875 9.6875 16.125 C6.60089971 17.43804972 6.05192656 17.91584316 4.1875 20.9375 C3.795625 21.948125 3.40375 22.95875 3 24 C2.34385236 25.33854118 1.67924735 26.67303155 1 28 C0.82984375 27.38511719 0.6596875 26.77023438 0.484375 26.13671875 C-0.94795694 21.1376898 -0.94795694 21.1376898 -3.9375 17 C-5.96233331 16.01826264 -7.78706123 15.39516764 -10 15 C-10 14.34 -10 13.68 -10 13 C-8.88625 12.608125 -7.7725 12.21625 -6.625 11.8125 C-3.89008809 10.63803178 -3.16536369 10.2856282 -1.625 7.625 C-1.02130991 5.08950161 -0.44043848 2.56922444 0 0 Z " fill="#E0AC4C" transform="translate(245,21)"/>
<path d="M0 0 C0.66 0 1.32 0 2 0 C2.22042969 0.92232422 2.22042969 0.92232422 2.4453125 1.86328125 C3.92039146 7.39787952 3.92039146 7.39787952 8.1875 11.0625 C9.115625 11.371875 10.04375 11.68125 11 12 C11 12.66 11 13.32 11 14 C9.6078125 14.433125 9.6078125 14.433125 8.1875 14.875 C3.57428959 17.95047361 3.12023306 21.76241911 2 27 C1.34 27 0.68 27 0 27 C-0.17015625 26.38511719 -0.3403125 25.77023437 -0.515625 25.13671875 C-1.94773996 20.11319162 -1.94773996 20.11319162 -5 16 C-7.11785113 14.88214887 -7.11785113 14.88214887 -10 14 C-10 13.34 -10 12.68 -10 12 C-9.071875 11.608125 -8.14375 11.21625 -7.1875 10.8125 C-3.07824725 8.47586608 -1.64161222 6.15815018 -0.3125 1.6875 C-0.209375 1.130625 -0.10625 0.57375 0 0 Z " fill="#DDA847" transform="translate(230,377)"/>
<path d="M0 0 C0.66 0 1.32 0 2 0 C2.22042969 1.15628906 2.22042969 1.15628906 2.4453125 2.3359375 C3.11945607 5.35021164 3.82011278 8.14320348 5 11 C8.00689577 12.84179103 8.00689577 12.84179103 11 13 C11 13.66 11 14.32 11 15 C10.071875 15.515625 9.14375 16.03125 8.1875 16.5625 C3.89703545 19.20980792 3.13867419 23.32544281 2 28 C1.34 28 0.68 28 0 28 C-0.4021875 26.1128125 -0.4021875 26.1128125 -0.8125 24.1875 C-1.62037502 20.9842473 -2.1881664 18.94665403 -5 17 C-7.09989652 15.82425289 -7.09989652 15.82425289 -9 15 C-9 14.34 -9 13.68 -9 13 C-8.05125 12.5875 -7.1025 12.175 -6.125 11.75 C-2.8834264 9.93471878 -2.07722115 9.42752184 -1 6 C-0.61709538 4.00889599 -0.27395385 2.00899487 0 0 Z " fill="#DFAB4A" transform="translate(262,282)"/>
<path d="M0 0 C0.66 0 1.32 0 2 0 C2.26554687 0.62648438 2.53109375 1.25296875 2.8046875 1.8984375 C3.15789062 2.71570313 3.51109375 3.53296875 3.875 4.375 C4.39707031 5.59316406 4.39707031 5.59316406 4.9296875 6.8359375 C5.92446067 9.13802299 5.92446067 9.13802299 8 11 C10.06874034 11.6425235 10.06874034 11.6425235 12 12 C12 12.66 12 13.32 12 14 C11.071875 14.37125 10.14375 14.7425 9.1875 15.125 C5.40829152 17.34806381 4.63037199 19.00558862 3 23 C2.33333333 24.33333333 1.66666667 25.66666667 1 27 C0.70996094 26.18595703 0.70996094 26.18595703 0.4140625 25.35546875 C0.02347656 24.28232422 0.02347656 24.28232422 -0.375 23.1875 C-0.63023438 22.47980469 -0.88546875 21.77210937 -1.1484375 21.04296875 C-2.47527653 17.85977237 -3.44346689 16.25176498 -6.625 14.8125 C-7.40875 14.544375 -8.1925 14.27625 -9 14 C-9 13.34 -9 12.68 -9 12 C-8.21625 11.71125 -7.4325 11.4225 -6.625 11.125 C-3.90328368 10.15087746 -3.90328368 10.15087746 -2 8 C-1.32707499 6.03309626 -1.32707499 6.03309626 -0.875 3.875 C-0.58625 2.59625 -0.2975 1.3175 0 0 Z " fill="#DFAC4B" transform="translate(106,96)"/>
<path d="M0 0 C0.66 0 1.32 0 2 0 C2.556875 1.8871875 2.556875 1.8871875 3.125 3.8125 C4.41536988 7.33452407 4.82272104 7.88876614 8.1875 10 C9.115625 10.33 10.04375 10.66 11 11 C10.67 11.99 10.34 12.98 10 14 C8.33927151 14.68132451 6.672233 15.34742127 5 16 C3.0549 18.91765 2.54723683 20.62537285 2 24 C1.34 24 0.68 24 0 24 C-0.391875 22.906875 -0.78375 21.81375 -1.1875 20.6875 C-2.72174186 17.07107276 -4.380194 15.67067969 -8 14 C-8.66 13.67 -9.32 13.34 -10 13 C-10 12.34 -10 11.68 -10 11 C-8.906875 10.67 -7.81375 10.34 -6.6875 10 C-4.21255701 8.97294876 -3.21249 8.37149114 -1.8671875 6.01953125 C-1.14756289 4.04580355 -0.56398345 2.02370534 0 0 Z " fill="#D7A347" transform="translate(33,99)"/>
<path d="M0 0 C0.66 0 1.32 0 2 0 C2.23074219 0.62648438 2.46148437 1.25296875 2.69921875 1.8984375 C4.6234904 7.12227926 4.6234904 7.12227926 8.75 10.5625 C9.4925 10.706875 10.235 10.85125 11 11 C11 11.66 11 12.32 11 13 C9.6078125 13.185625 9.6078125 13.185625 8.1875 13.375 C4.86114582 14.65261901 4.86114582 14.65261901 3.93359375 17.359375 C3.19248721 19.89417419 2.54349792 22.41600113 2 25 C1.34 25 0.68 25 0 25 C-0.226875 23.741875 -0.45375 22.48375 -0.6875 21.1875 C-1.49085784 17.9162731 -1.72632176 17.21210064 -4.5 15.0625 C-5.325 14.711875 -6.15 14.36125 -7 14 C-7.66 13.67 -8.32 13.34 -9 13 C-9 12.34 -9 11.68 -9 11 C-8.05125 10.566875 -7.1025 10.13375 -6.125 9.6875 C-2.79958063 8.20697799 -2.79958063 8.20697799 -1 5 C-0.61500109 3.34450469 -0.27206865 1.6777567 0 0 Z " fill="#D9A546" transform="translate(105,271)"/>
<path d="M0 0 C0.66 0 1.32 0 2 0 C2.37125 1.2375 2.7425 2.475 3.125 3.75 C4.78700966 8.27837415 6.80858865 9.76458061 11 12 C10.401875 12.433125 9.80375 12.86625 9.1875 13.3125 C8.1046875 14.1478125 8.1046875 14.1478125 7 15 C6.46375 15.4125 5.9275 15.825 5.375 16.25 C3.30568783 18.88367004 2.78796451 21.78752932 2 25 C1.34 25 0.68 25 0 25 C-0.22042969 24.07767578 -0.22042969 24.07767578 -0.4453125 23.13671875 C-1.92039146 17.60212048 -1.92039146 17.60212048 -6.1875 13.9375 C-7.115625 13.628125 -8.04375 13.31875 -9 13 C-9 12.34 -9 11.68 -9 11 C-8.071875 10.855625 -7.14375 10.71125 -6.1875 10.5625 C-2.90682422 9.35419015 -2.90682422 9.35419015 -1.93359375 6.86328125 C-1.19449517 4.58885712 -0.54605174 2.32790481 0 0 Z " fill="#E1AA42" transform="translate(199,289)"/>
<path d="M0 0 C0.66 0 1.32 0 2 0 C2.350625 1.258125 2.70125 2.51625 3.0625 3.8125 C3.9853858 6.34371591 4.51276061 7.66759446 6.7578125 9.19921875 C8.88680095 10.12040525 8.88680095 10.12040525 12 11 C10 13 10 13 7 13.5625 C3.8588792 14.64864286 3.8588792 14.64864286 3.1640625 17.12890625 C2.66984466 19.41734971 2.27736846 21.67584363 2 24 C1.34 24 0.68 24 0 24 C-0.23074219 23.38511719 -0.46148437 22.77023438 -0.69921875 22.13671875 C-2.78074466 16.85950482 -2.78074466 16.85950482 -6.75 12.9375 C-7.4925 12.628125 -8.235 12.31875 -9 12 C-7 10 -7 10 -4.5 8.8125 C-1.11021633 6.35490684 -0.83032187 4.00064173 0 0 Z " fill="#E1A83D" transform="translate(265,71)"/>
<path d="M0 0 C0.66 0 1.32 0 2 0 C2.66 2.64 3.32 5.28 4 8 C6.31 8.66 8.62 9.32 11 10 C11 10.66 11 11.32 11 12 C10.05125 12.433125 9.1025 12.86625 8.125 13.3125 C4.79958063 14.79302201 4.79958063 14.79302201 3 18 C2.61500109 19.65549531 2.27206865 21.3222433 2 23 C1.34 23 0.68 23 0 23 C-0.28875 21.88625 -0.5775 20.7725 -0.875 19.625 C-1.69241329 15.99708908 -1.69241329 15.99708908 -4 14 C-5.64991582 13.29289322 -7.31562256 12.62056011 -9 12 C-9 11.34 -9 10.68 -9 10 C-8.071875 9.649375 -7.14375 9.29875 -6.1875 8.9375 C-2.0142355 6.40080981 -1.53814504 4.5289826 0 0 Z " fill="#DBA746" transform="translate(299,100)"/>
<path d="M0 0 C0.66 0 1.32 0 2 0 C2.23074219 0.55429687 2.46148437 1.10859375 2.69921875 1.6796875 C4.74567884 6.43231515 4.74567884 6.43231515 8.75 9.5 C9.4925 9.665 10.235 9.83 11 10 C11 10.66 11 11.32 11 12 C10.071875 12.33 9.14375 12.66 8.1875 13 C3.79272355 15.75750679 3.44317923 18.10922593 2 23 C1.34 23 0.68 23 0 23 C-0.3403125 21.3603125 -0.3403125 21.3603125 -0.6875 19.6875 C-1.64442343 15.89805609 -1.64442343 15.89805609 -4.5 14.1875 C-5.325 13.795625 -6.15 13.40375 -7 13 C-7.66 12.34 -8.32 11.68 -9 11 C-7.88625 10.484375 -6.7725 9.96875 -5.625 9.4375 C-3.40405925 8.19467053 -2.23514102 7.47129124 -1.08984375 5.17578125 C-0.47406597 3.04770412 -0.47406597 3.04770412 0 0 Z " fill="#DCA543" transform="translate(158,314)"/>
<path d="M0 0 C0.66 0 1.32 0 2 0 C2.19335938 0.55429688 2.38671875 1.10859375 2.5859375 1.6796875 C2.84632813 2.40414062 3.10671875 3.12859375 3.375 3.875 C3.63023437 4.59429687 3.88546875 5.31359375 4.1484375 6.0546875 C5.61027061 9.39410441 7.82647554 10.51902192 11 12 C10.05125 12.433125 9.1025 12.86625 8.125 13.3125 C4.79958063 14.79302201 4.79958063 14.79302201 3 18 C2.60986284 19.9896995 2.26797351 21.99019869 2 24 C1.34 24 0.68 24 0 24 C-0.22042969 23.07767578 -0.22042969 23.07767578 -0.4453125 22.13671875 C-1.92039146 16.60212048 -1.92039146 16.60212048 -6.1875 12.9375 C-7.115625 12.628125 -8.04375 12.31875 -9 12 C-8.01 11.34 -7.02 10.68 -6 10 C-2.47796924 7.01161027 -1.21128288 4.44137057 0 0 Z " fill="#DEA73F" transform="translate(395,249)"/>
<path d="M0 0 C0.66 0 1.32 0 2 0 C2.99 2.97 3.98 5.94 5 9 C6.65 9.33 8.3 9.66 10 10 C10 10.66 10 11.32 10 12 C9.236875 12.391875 8.47375 12.78375 7.6875 13.1875 C4.02360316 15.65850019 3.47271683 17.89189515 2 22 C-0.23637531 19.76362469 -0.83847971 17.90380073 -2 15 C-4.1385485 12.8614515 -5.13275314 12.57344937 -8 12 C-8 11.34 -8 10.68 -8 10 C-7.05125 9.649375 -6.1025 9.29875 -5.125 8.9375 C-1.65663938 7.2285659 -1.65663938 7.2285659 -0.625 3.3125 C-0.41875 2.219375 -0.2125 1.12625 0 0 Z " fill="#D4A249" transform="translate(328,135)"/>
<path d="M0 0 C0.66 0 1.32 0 2 0 C2.556875 1.8871875 2.556875 1.8871875 3.125 3.8125 C4.41536988 7.33452407 4.82272104 7.88876614 8.1875 10 C9.115625 10.33 10.04375 10.66 11 11 C9 13 9 13 6.5 14.1875 C3.11021633 16.64509316 2.83032187 18.99935827 2 23 C1.34 23 0.68 23 0 23 C-0.20625 21.741875 -0.4125 20.48375 -0.625 19.1875 C-1.50806022 15.51890422 -1.72993883 15.17283915 -5.125 13 C-6.07375 12.67 -7.0225 12.34 -8 12 C-7.67 11.34 -7.34 10.68 -7 10 C-6.195625 9.79375 -5.39125 9.5875 -4.5625 9.375 C-1.88010829 8.28701076 -1.88010829 8.28701076 -1.2265625 6.09375 C-0.73738737 4.08033351 -0.36195829 2.04012855 0 0 Z " fill="#D7A74A" transform="translate(139,26)"/>
<path d="M0 0 C0.268125 0.5775 0.53625 1.155 0.8125 1.75 C2.93342958 5.76860341 4.73065069 8.2333727 9 10 C6 13 6 13 4.4375 14.3125 C2.45759963 16.63673087 1.83874675 19.09664586 1 22 C0.67 22 0.34 22 0 22 C-0.20625 20.906875 -0.4125 19.81375 -0.625 18.6875 C-1.65663938 14.7714341 -1.65663938 14.7714341 -5.125 13.0625 C-6.07375 12.711875 -7.0225 12.36125 -8 12 C-8 11.34 -8 10.68 -8 10 C-7.05125 9.649375 -6.1025 9.29875 -5.125 8.9375 C-1.65663938 7.2285659 -1.65663938 7.2285659 -0.625 3.3125 C-0.41875 2.219375 -0.2125 1.12625 0 0 Z " fill="#DBA43E" transform="translate(90,378)"/>
<path d="M0 0 C3.1875 0.3125 3.1875 0.3125 5.625 2 C7.1875 4.3125 7.1875 4.3125 6.9375 7.0625 C6.69 7.805 6.4425 8.5475 6.1875 9.3125 C3.5 10.0625 3.5 10.0625 0.1875 10.3125 C-2.6875 8.375 -2.6875 8.375 -4.8125 6.3125 C-3.75436047 0.41715116 -3.75436047 0.41715116 0 0 Z " fill="#B7863C" transform="translate(63.8125,70.6875)"/>
<path d="M0 0 C0.66 0 1.32 0 2 0 C2.3403125 1.423125 2.3403125 1.423125 2.6875 2.875 C3.69083714 6.19323388 3.69083714 6.19323388 6.625 7.375 C7.40875 7.58125 8.1925 7.7875 9 8 C9 8.66 9 9.32 9 10 C8.21625 10.20625 7.4325 10.4125 6.625 10.625 C3.69083714 11.80676612 3.69083714 11.80676612 2.6875 15.125 C2.460625 16.07375 2.23375 17.0225 2 18 C1.34 18 0.68 18 0 18 C-0.2475 17.05125 -0.495 16.1025 -0.75 15.125 C-1.6857077 11.91306809 -1.6857077 11.91306809 -4.125 10.625 C-4.74375 10.41875 -5.3625 10.2125 -6 10 C-6 9.34 -6 8.68 -6 8 C-5.38125 7.79375 -4.7625 7.5875 -4.125 7.375 C-1.15346355 5.45224112 -0.86975341 3.33405473 0 0 Z " fill="#D7A64B" transform="translate(78,229)"/>
<path d="M0 0 C0.66 0 1.32 0 2 0 C2.433125 1.093125 2.86625 2.18625 3.3125 3.3125 C4.49495641 6.09408793 5.60800043 8.06361939 8 10 C7.195625 10.556875 6.39125 11.11375 5.5625 11.6875 C2.75771784 14.21864487 2.30618405 15.32579134 2 19 C1.34 19 0.68 19 0 19 C-0.37125 17.63875 -0.37125 17.63875 -0.75 16.25 C-2.03981342 12.89648511 -3.31971042 11.32291764 -6 9 C-5.38125 8.814375 -4.7625 8.62875 -4.125 8.4375 C-0.94397134 6.28562767 -0.80548053 3.62466237 0 0 Z " fill="#D1A147" transform="translate(115,173)"/>
<path d="M0 0 C0.66 0.66 1.32 1.32 2 2 C1.75 5.0625 1.75 5.0625 1 8 C-1.76250036 9.38125018 -3.94731099 9.19079306 -7 9 C-7.66 8.34 -8.32 7.68 -9 7 C-8.75 3.4375 -8.75 3.4375 -8 0 C-5.09288879 -1.4535556 -3.10402897 -0.71133997 0 0 Z " fill="#B6853B" transform="translate(82,41)"/>
<path d="M0 0 C0.66 0 1.32 0 2 0 C2.268125 0.94875 2.53625 1.8975 2.8125 2.875 C3.74986588 6.25267273 3.74986588 6.25267273 7 8 C7 8.66 7 9.32 7 10 C5.68 10.33 4.36 10.66 3 11 C2.67 13.31 2.34 15.62 2 18 C1.34 18 0.68 18 0 18 C-0.2475 17.05125 -0.495 16.1025 -0.75 15.125 C-1.6857077 11.91306809 -1.6857077 11.91306809 -4.125 10.625 C-4.74375 10.41875 -5.3625 10.2125 -6 10 C-6 9.34 -6 8.68 -6 8 C-5.38125 7.79375 -4.7625 7.5875 -4.125 7.375 C-1.15346355 5.45224112 -0.86975341 3.33405473 0 0 Z " fill="#DDA43F" transform="translate(190,351)"/>
<path d="M0 0 C0.66 0 1.32 0 2 0 C2.433125 0.94875 2.86625 1.8975 3.3125 2.875 C4.79302201 6.20041937 4.79302201 6.20041937 8 8 C7.195625 8.5775 6.39125 9.155 5.5625 9.75 C3.02133261 11.98126893 2.34879632 12.74456771 2 16 C1.34 16 0.68 16 0 16 C-0.2475 15.030625 -0.495 14.06125 -0.75 13.0625 C-1.1625 12.051875 -1.575 11.04125 -2 10 C-4.03243548 9.03122943 -4.03243548 9.03122943 -6 9 C-6 8.34 -6 7.68 -6 7 C-5.071875 6.6596875 -5.071875 6.6596875 -4.125 6.3125 C-1.38589791 4.62070165 -0.94975528 3.00755839 0 0 Z " fill="#D6A547" transform="translate(250,113)"/>
<path d="M0 0 C0.66 0 1.32 0 2 0 C2.268125 1.093125 2.53625 2.18625 2.8125 3.3125 C3.87663739 6.61692663 4.34654664 7.94960422 7 10 C6.21625 10.763125 5.4325 11.52625 4.625 12.3125 C1.92742283 14.90891805 1.92742283 14.90891805 0 18 C-0.37125 16.6078125 -0.37125 16.6078125 -0.75 15.1875 C-2.06454245 11.83541675 -2.97963384 10.8122197 -6 9 C-4.7934375 7.88625 -4.7934375 7.88625 -3.5625 6.75 C-1.23011409 4.24695171 -0.36465606 3.2819045 0 0 Z " fill="#E0AE4E" transform="translate(214,51)"/>
<path d="M0 0 C0.66 0 1.32 0 2 0 C2.268125 0.928125 2.53625 1.85625 2.8125 2.8125 C3.91148371 5.76240366 4.62418561 7.05615186 7 9 C6.360625 9.5775 5.72125 10.155 5.0625 10.75 C3.01776132 12.98062401 2.41794801 14.07436391 2 17 C1.34 17 0.68 17 0 17 C-0.37125 15.6078125 -0.37125 15.6078125 -0.75 14.1875 C-2.06454245 10.83541675 -2.97963384 9.8122197 -6 8 C-5.38125 7.79375 -4.7625 7.5875 -4.125 7.375 C-1.15346355 5.45224112 -0.86975341 3.33405473 0 0 Z " fill="#DBAA4C" transform="translate(402,20)"/>
<path d="M0 0 C0.66 0 1.32 0 2 0 C2.268125 0.969375 2.53625 1.93875 2.8125 2.9375 C3.204375 3.948125 3.59625 4.95875 4 6 C4.99 6.33 5.98 6.66 7 7 C7 7.66 7 8.32 7 9 C5.68 9.33 4.36 9.66 3 10 C2.67 11.98 2.34 13.96 2 16 C1.34 16 0.68 16 0 16 C-0.2475 15.236875 -0.495 14.47375 -0.75 13.6875 C-2.10995558 10.7635955 -3.31585826 9.69995644 -6 8 C-5.38125 7.79375 -4.7625 7.5875 -4.125 7.375 C-1.15346355 5.45224112 -0.86975341 3.33405473 0 0 Z " fill="#D0A149" transform="translate(28,182)"/>
<path d="M0 0 C2 3 2 3 3 5.125 C3.85860158 7.17044538 3.85860158 7.17044538 6 8 C6 8.66 6 9.32 6 10 C4.66666667 11.33333333 3.33333333 12.66666667 2 14 C0.76487921 16.13309192 0.76487921 16.13309192 0 18 C-0.433125 16.865625 -0.86625 15.73125 -1.3125 14.5625 C-2.1478125 12.7990625 -2.1478125 12.7990625 -3 11 C-3.99 10.67 -4.98 10.34 -6 10 C-6 9.34 -6 8.68 -6 8 C-5.38125 7.79375 -4.7625 7.5875 -4.125 7.375 C-1.15346355 5.45224112 -0.86975341 3.33405473 0 0 Z " fill="#DEAF50" transform="translate(400,166)"/>
<path d="M0 0 C0.66 0 1.32 0 2 0 C2.45375 0.969375 2.9075 1.93875 3.375 2.9375 C4.65786221 6.07079582 4.65786221 6.07079582 7 7 C7 7.66 7 8.32 7 9 C5.66666667 10.33333333 4.33333333 11.66666667 3 13 C1.76487921 15.13309192 1.76487921 15.13309192 1 17 C0.566875 15.865625 0.13375 14.73125 -0.3125 13.5625 C-1.1478125 11.7990625 -1.1478125 11.7990625 -2 10 C-2.99 9.67 -3.98 9.34 -5 9 C-5 8.34 -5 7.68 -5 7 C-4.0409375 6.6596875 -4.0409375 6.6596875 -3.0625 6.3125 C-0.72806339 5.14749104 -0.72806339 5.14749104 -0.25 2.375 C-0.1675 1.59125 -0.085 0.8075 0 0 Z " fill="#D9A645" transform="translate(29,394)"/>
<path d="M0 0 C2 2 2 2 2.9375 4.0625 C3.90403542 6.34565884 3.90403542 6.34565884 7 7 C7 7.66 7 8.32 7 9 C6.071875 9.3403125 6.071875 9.3403125 5.125 9.6875 C2.38589791 11.37929835 1.94975528 12.99244161 1 16 C0.62875 15.1028125 0.62875 15.1028125 0.25 14.1875 C-1.16444091 11.71222841 -2.72860188 10.66569196 -5 9 C-5 8.34 -5 7.68 -5 7 C-3.66666667 5.66666667 -2.33333333 4.33333333 -1 3 C-0.67 2.01 -0.34 1.02 0 0 Z " fill="#D8AB4F" transform="translate(129,132)"/>
<path d="M0 0 C0.66 0 1.32 0 2 0 C2.66 2.31 3.32 4.62 4 7 C3.21625 7.433125 2.4325 7.86625 1.625 8.3125 C-1.21698375 9.89220247 -1.21698375 9.89220247 -3 13 C-2.01 13.33 -1.02 13.66 0 14 C-0.66 14.66 -1.32 15.32 -2 16 C-4.62901288 14.47793991 -6.84365964 13.15634036 -9 11 C-7.88625 10.484375 -6.7725 9.96875 -5.625 9.4375 C-3.40405925 8.19467053 -2.23514102 7.47129124 -1.08984375 5.17578125 C-0.47406597 3.04770412 -0.47406597 3.04770412 0 0 Z " fill="#CE9E43" transform="translate(158,314)"/>
<path d="M0 0 C0.66 0 1.32 0 2 0 C2.15855469 0.62648438 2.31710938 1.25296875 2.48046875 1.8984375 C3.7905977 7.15624686 3.7905977 7.15624686 7.6875 10.5625 C8.450625 10.706875 9.21375 10.85125 10 11 C9.01 11.495 9.01 11.495 8 12 C7.67 12.66 7.34 13.32 7 14 C7 13.34 7 12.68 7 12 C6.38125 11.731875 5.7625 11.46375 5.125 11.1875 C3 10 3 10 1 7 C-0.32 8.65 -1.64 10.3 -3 12 C-4.32 11.67 -5.64 11.34 -7 11 C-5.824375 10.2265625 -5.824375 10.2265625 -4.625 9.4375 C-1.44405752 6.4837677 -0.88506307 4.18393452 0 0 Z " fill="#CFA148" transform="translate(230,377)"/>
<path d="M0 0 C0.66 0 1.32 0 2 0 C2.33 1.65 2.66 3.3 3 5 C3.99 5.33 4.98 5.66 6 6 C5.54625 6.4125 5.0925 6.825 4.625 7.25 C2.94049626 9.06408095 2.00734029 10.75285627 1 13 C0.54625 12.21625 0.0925 11.4325 -0.375 10.625 C-1.88428742 7.96301969 -1.88428742 7.96301969 -4 6 C-3.01 5.34 -2.02 4.68 -1 4 C-0.27617533 1.94074861 -0.27617533 1.94074861 0 0 Z " fill="#CBA34D" transform="translate(204,101)"/>
<path d="M0 0 C0.66 0 1.32 0 2 0 C2.268125 0.94875 2.53625 1.8975 2.8125 2.875 C3.74986588 6.25267273 3.74986588 6.25267273 7 8 C7 8.66 7 9.32 7 10 C5.68 10.33 4.36 10.66 3 11 C2.67 13.31 2.34 15.62 2 18 C1.34 18 0.68 18 0 18 C0 16.02 0 14.04 0 12 C0.66 12 1.32 12 2 12 C2 11.34 2 10.68 2 10 C2.66 10 3.32 10 4 10 C3.154375 9.278125 2.30875 8.55625 1.4375 7.8125 C-1 5 -1 5 -0.8125 2.1875 C-0.544375 1.465625 -0.27625 0.74375 0 0 Z " fill="#D09E3F" transform="translate(190,351)"/>
<path d="M0 0 C0 1.65 0 3.3 0 5 C-1.65614657 5.38218767 -3.32457024 5.71395102 -5 6 C-6 5 -6 5 -6.0625 2.4375 C-6.041875 1.633125 -6.02125 0.82875 -6 0 C-3.50907189 -1.24546405 -2.58919267 -0.7767578 0 0 Z " fill="#B6853B" transform="translate(92,63)"/>
<path d="M0 0 C1.65 0 3.3 0 5 0 C5.042721 1.66611905 5.04063832 3.33382885 5 5 C4 6 4 6 1.4375 6.0625 C0.2309375 6.0315625 0.2309375 6.0315625 -1 6 C-0.67 4.02 -0.34 2.04 0 0 Z " fill="#B5843B" transform="translate(55,50)"/>
<path d="M0 0 C0.66 0 1.32 0 2 0 C2.66 2.64 3.32 5.28 4 8 C0.66666667 8.66666667 -2.66666667 9.33333333 -6 10 C-5.195625 9.0925 -4.39125 8.185 -3.5625 7.25 C-1.58857329 4.89690092 -0.36122533 3.13061954 0 0 Z " fill="#CCA34C" transform="translate(214,51)"/>
<path d="M0 0 C2.125 0.375 2.125 0.375 4 1 C4 2.65 4 4.3 4 6 C2.35 6 0.7 6 -1 6 C-1.625 4.125 -1.625 4.125 -2 2 C-1.34 1.34 -0.68 0.68 0 0 Z " fill="#DFAD48" transform="translate(30,22)"/>
<path d="M0 0 C0.66 0 1.32 0 2 0 C1.5317879 4.77576339 0.75668002 8.04476345 -2 12 C-3.32 11.67 -4.64 11.34 -6 11 C-5.01 11 -4.02 11 -3 11 C-2.86722656 10.28972656 -2.73445313 9.57945312 -2.59765625 8.84765625 C-2.42105469 7.92855469 -2.24445312 7.00945312 -2.0625 6.0625 C-1.88847656 5.14597656 -1.71445312 4.22945313 -1.53515625 3.28515625 C-1 1 -1 1 0 0 Z " fill="#BC9041" transform="translate(35,262)"/>
<path d="M0 0 C1.125 1.6875 1.125 1.6875 2 4 C1.34742127 5.672233 0.68132451 7.33927151 0 9 C0.99 10.485 0.99 10.485 2 12 C1.01 12.495 1.01 12.495 0 13 C-0.66 12.01 -1.32 11.02 -2 10 C-2.99 9.67 -3.98 9.34 -5 9 C-5 8.34 -5 7.68 -5 7 C-4.0409375 6.6596875 -4.0409375 6.6596875 -3.0625 6.3125 C-0.72806339 5.14749104 -0.72806339 5.14749104 -0.25 2.375 C-0.1675 1.59125 -0.085 0.8075 0 0 Z " fill="#CC9D44" transform="translate(29,394)"/>
<path d="M0 0 C0.66 0 1.32 0 2 0 C2.19335938 0.78246094 2.38671875 1.56492187 2.5859375 2.37109375 C2.84632813 3.38300781 3.10671875 4.39492188 3.375 5.4375 C3.63023437 6.44683594 3.88546875 7.45617187 4.1484375 8.49609375 C4.72573954 11.15570324 4.72573954 11.15570324 7 12 C6.01 12 5.02 12 4 12 C2.9739266 10.68662604 1.97272675 9.35335895 1 8 C0.34 8 -0.32 8 -1 8 C-0.67 5.36 -0.34 2.72 0 0 Z " fill="#D3A548" transform="translate(262,282)"/>
<path d="M0 0 C1.67542976 0.28604898 3.34385343 0.61781233 5 1 C4.67 2.32 4.34 3.64 4 5 C2.68 5 1.36 5 0 5 C-0.5625 3.0625 -0.5625 3.0625 -1 1 C-0.67 0.67 -0.34 0.34 0 0 Z " fill="#D8AA48" transform="translate(375,55)"/>
<path d="M0 0 C1.98 0.495 1.98 0.495 4 1 C3.67 2.65 3.34 4.3 3 6 C1.68 5.67 0.36 5.34 -1 5 C-0.67 3.35 -0.34 1.7 0 0 Z " fill="#D7A845" transform="translate(325,398)"/>
<path d="M0 0 C1.98 0.495 1.98 0.495 4 1 C3.67 2.65 3.34 4.3 3 6 C1.68 5.67 0.36 5.34 -1 5 C-0.67 3.35 -0.34 1.7 0 0 Z " fill="#DCAA43" transform="translate(283,330)"/>
<path d="M0 0 C0.99 0.33 1.98 0.66 3 1 C3 2.65 3 4.3 3 6 C1.35 5.67 -0.3 5.34 -2 5 C-1.125 1.125 -1.125 1.125 0 0 Z " fill="#CFA248" transform="translate(33,147)"/>
<path d="M0 0 C2.475 0.495 2.475 0.495 5 1 C4.67 2.32 4.34 3.64 4 5 C2.68 5 1.36 5 0 5 C0 3.35 0 1.7 0 0 Z " fill="#D3A548" transform="translate(90,205)"/>
<path d="M0 0 C0.66 0 1.32 0 2 0 C2.33 2.31 2.66 4.62 3 7 C1.68 7 0.36 7 -1 7 C-1.04254356 5.00045254 -1.04080783 2.99958364 -1 1 C-0.67 0.67 -0.34 0.34 0 0 Z " fill="#CF9B3B" transform="translate(151,372)"/>
<path d="M0 0 C2.475 0.495 2.475 0.495 5 1 C4.67 2.32 4.34 3.64 4 5 C2.68 4.67 1.36 4.34 0 4 C0 2.68 0 1.36 0 0 Z " fill="#DDAD48" transform="translate(360,275)"/>
<path d="M0 0 C2.475 0.495 2.475 0.495 5 1 C4.67 2.32 4.34 3.64 4 5 C2.68 4.67 1.36 4.34 0 4 C0 2.68 0 1.36 0 0 Z " fill="#D5A746" transform="translate(151,115)"/>
<path d="M0 0 C1.98 0.495 1.98 0.495 4 1 C3.67 2.32 3.34 3.64 3 5 C1.68 4.67 0.36 4.34 -1 4 C-0.67 2.68 -0.34 1.36 0 0 Z " fill="#D5A641" transform="translate(191,400)"/>
<path d="M0 0 C1.98 0.495 1.98 0.495 4 1 C3.67 2.32 3.34 3.64 3 5 C1.68 4.67 0.36 4.34 -1 4 C-0.67 2.68 -0.34 1.36 0 0 Z " fill="#ECB647" transform="translate(397,392)"/>
<path d="M0 0 C1.98 0.495 1.98 0.495 4 1 C3.67 2.32 3.34 3.64 3 5 C1.68 4.67 0.36 4.34 -1 4 C-0.67 2.68 -0.34 1.36 0 0 Z " fill="#D4A84A" transform="translate(196,26)"/>
<path d="M0 0 C2.97 0.495 2.97 0.495 6 1 C5.319375 1.61875 5.319375 1.61875 4.625 2.25 C2.94049626 4.06408095 2.00734029 5.75285627 1 8 C0.67 5.36 0.34 2.72 0 0 Z " fill="#DFB150" transform="translate(204,106)"/>
<path d="M0 0 C0.66 0 1.32 0 2 0 C2.66 2.64 3.32 5.28 4 8 C2 8 2 8 0.3125 6.8125 C-1 5 -1 5 -0.6875 2.3125 C-0.460625 1.549375 -0.23375 0.78625 0 0 Z " fill="#BC9445" transform="translate(33,99)"/>
<path d="M0 0 C0.66 0 1.32 0 2 0 C2.33 1.98 2.66 3.96 3 6 C1.68 5.67 0.36 5.34 -1 5 C-0.67 3.35 -0.34 1.7 0 0 Z " fill="#CA983B" transform="translate(233,319)"/>
<path d="M0 0 C0.66 0 1.32 0 2 0 C2.33 1.98 2.66 3.96 3 6 C2.01 6.33 1.02 6.66 0 7 C-1.04449911 3.86650268 -0.93423645 3.01031744 0 0 Z " fill="#D4A545" transform="translate(199,289)"/>
<path d="M0 0 C0.99 0 1.98 0 3 0 C3 1.65 3 3.3 3 5 C1.68 4.67 0.36 4.34 -1 4 C-0.67 2.68 -0.34 1.36 0 0 Z " fill="#C79D44" transform="translate(159,279)"/>
<path d="M0 0 C0.66 0 1.32 0 2 0 C2.33 2.31 2.66 4.62 3 7 C1.35 6.67 -0.3 6.34 -2 6 C-1.01 5.67 -0.02 5.34 1 5 C0.67 3.35 0.34 1.7 0 0 Z " fill="#CF9C3E" transform="translate(310,273)"/>
<path d="M0 0 C1.38232443 1.62626404 2.71937515 3.2925002 4 5 C0.79604584 5 -1.09399739 4.25664978 -4 3 C-4 2.34 -4 1.68 -4 1 C-2 0 -2 0 0 0 Z " fill="#C19849" transform="translate(324,144)"/>
<path d="M0 0 C0.66 0 1.32 0 2 0 C2.33 1.98 2.66 3.96 3 6 C2.01 6 1.02 6 0 6 C0 6.66 0 7.32 0 8 C-0.66 7.67 -1.32 7.34 -2 7 C-1.34 4.69 -0.68 2.38 0 0 Z " fill="#CFA140" transform="translate(265,71)"/>
<path d="M0 0 C0.99 0.33 1.98 0.66 3 1 C2.67 2.32 2.34 3.64 2 5 C1.01 5 0.02 5 -1 5 C-0.67 3.35 -0.34 1.7 0 0 Z " fill="#DBAC4A" transform="translate(42,235)"/>
<path d="M0 0 C2.31 0.33 4.62 0.66 7 1 C6.34 2.32 5.68 3.64 5 5 C4.34 4.67 3.68 4.34 3 4 C3 3.01 3 2.02 3 1 C2.01 0.67 1.02 0.34 0 0 Z " fill="#CCA14B" transform="translate(175,75)"/>
<path d="M0 0 C0 1.32 0 2.64 0 4 C-2.97 3.505 -2.97 3.505 -6 3 C-6 2.34 -6 1.68 -6 1 C-3 0 -3 0 0 0 Z " fill="#CFA54D" transform="translate(241,33)"/>
<path d="M0 0 C0.66 0 1.32 0 2 0 C2.33 1.98 2.66 3.96 3 6 C1.68 6.33 0.36 6.66 -1 7 C-0.67 4.69 -0.34 2.38 0 0 Z " fill="#BC9949" transform="translate(245,21)"/>
</svg>
